<?xml version="1.0" standalone="no"?>
<!DOCTYPE svg PUBLIC "-//W3C//DTD SVG 1.1//EN" "http://www.w3.org/Graphics/SVG/1.1/DTD/svg11.dtd" >
<svg xmlns="http://www.w3.org/2000/svg">
<metadata>Generated by IcoMoon</metadata>
<defs>
<font id="icomoon" horiz-adv-x="1024">
<font-face units-per-em="1024" ascent="960" descent="-64" />
<missing-glyph horiz-adv-x="1024" />
<glyph unicode="&#x20;" horiz-adv-x="512" d="" />
<glyph unicode="&#xe900;" glyph-name="camera" d="M303.417 397.426c0-111.616 90.709-202.268 202.268-202.268s202.268 90.681 202.268 202.268c0 111.559-90.709 202.268-202.268 202.268s-202.268-90.709-202.268-202.268zM505.685 94.037c-167.339 0-303.417 136.078-303.417 303.417 0 167.282 136.078 303.417 303.417 303.417s303.417-136.135 303.417-303.417c0-167.339-136.078-303.417-303.417-303.417zM910.222 751.417h-97.593c-33.792 0-65.394 16.839-84.139 44.999l-41.074 61.696c-18.773 28.075-50.375 44.999-84.139 44.999h-195.186c-33.792 0-65.394-16.953-84.139-44.999l-41.074-61.696c-18.773-28.16-50.375-44.999-84.139-44.999h-97.593c-55.865 0-101.148-45.312-101.148-101.148v-556.26c0-55.836 45.255-101.148 101.148-101.148h809.074c55.865 0 101.148 45.312 101.148 101.148v556.26c0 55.836-45.255 101.148-101.148 101.148z" />
<glyph unicode="&#xe901;" glyph-name="cheveron-down" d="M475.802 296.96l36.198-36.198 289.638 289.638-72.397 72.397-217.242-217.19-217.242 217.19-72.397-72.397z" />
<glyph unicode="&#xe902;" glyph-name="cheveron-left" d="M360.96 484.198l-36.198-36.198 289.638-289.638 72.397 72.397-217.19 217.242 217.19 217.242-72.397 72.397z" />
<glyph unicode="&#xe903;" glyph-name="cheveron-right" d="M663.040 411.802l36.198 36.198-289.638 289.638-72.397-72.397 217.19-217.242-217.19-217.242 72.397-72.397 253.44 253.44z" />
<glyph unicode="&#xe904;" glyph-name="cheveron-up" d="M548.198 599.040l-36.198 36.198-289.638-289.638 72.397-72.397 217.242 217.19 217.242-217.19 72.397 72.397z" />
<glyph unicode="&#xe905;" glyph-name="close" d="M1024 839.334l-120.666 120.666-391.335-391.333-391.333 391.333-120.666-120.666 391.333-391.333-391.333-391.335 120.666-120.666 391.333 391.333 391.333-391.333 120.666 120.666-391.33 391.335z" />
<glyph unicode="&#xe906;" glyph-name="down-arrow" d="M73.142 375.145l438.858-439.143 438.858 439.001-51.572 51.714-350.715-350.715v883.998h-73.144v-883.998l-350.859 350.857z" />
<glyph unicode="&#xe907;" glyph-name="facebook1" d="M608 768h160v192h-160c-123.52 0-224-100.48-224-224v-96h-128v-192h128v-512h192v512h160l32 192h-192v96c0 17.344 14.656 32 32 32z" />
<glyph unicode="&#xe908;" glyph-name="globe" d="M873.956 809.958c-200.037 200.041-523.844 200.073-723.913 0-200.043-200.041-200.073-523.844 0-723.915 200.037-200.041 523.844-200.071 723.913 0 200.043 200.041 200.071 523.844 0 723.915zM852.562 159.012c-23.916 21.387-49.5 40.313-76.466 56.624 17.823 61.568 28.383 129.318 30.879 199.745h150.495c-6.804-94.928-43.279-183.978-104.908-256.369zM66.528 415.381h150.495c2.496-70.427 13.055-138.177 30.879-199.745-26.966-16.311-52.549-35.237-76.466-56.624-61.63 72.391-98.102 161.44-104.908 256.369zM171.438 736.99c23.916-21.387 49.5-40.313 76.466-56.624-17.823-61.568-28.383-129.318-30.879-199.745h-150.497c6.806 94.927 43.279 183.976 104.91 256.369zM479.381 673.624c-53.201 3.805-104.497 16.908-152.052 38.525 27.657 71.22 78.644 156.64 152.052 177.809zM479.381 608.261v-127.642h-197.089c2.258 59.575 10.699 116.783 24.738 169.126 54.042-23.625 112.162-37.733 172.351-41.484zM479.381 415.381v-127.642c-60.189-3.751-118.309-17.859-172.351-41.484-14.039 52.343-22.48 109.551-24.738 169.126zM479.381 222.376v-216.331c-73.404 21.169-124.39 106.579-152.052 177.807 47.555 21.616 98.851 34.72 152.052 38.525zM544.619 222.376c53.201-3.805 104.497-16.908 152.052-38.525-27.659-71.222-78.644-156.638-152.052-177.807zM544.619 287.739v127.642h197.089c-2.258-59.575-10.699-116.783-24.738-169.126-54.042 23.625-112.162 37.733-172.351 41.484zM544.619 480.619v127.642c60.189 3.751 118.309 17.859 172.351 41.484 14.039-52.343 22.48-109.551 24.738-169.126zM544.619 673.624v216.331c73.408-21.169 124.394-106.589 152.052-177.809-47.555-21.614-98.851-34.718-152.052-38.523zM691.14 857.388c41.756-18.285 80.712-43.079 115.634-73.842-16.622-14.656-34.162-27.945-52.477-39.829-16.265 40.271-37.042 79.407-63.156 113.671zM269.702 743.717c-18.315 11.884-35.853 25.173-52.477 39.829 34.921 30.763 73.878 55.557 115.634 73.842-26.115-34.268-46.892-73.404-63.156-113.671zM269.704 152.283c16.263-40.269 37.044-79.407 63.156-113.671-41.756 18.285-80.712 43.079-115.634 73.842 16.622 14.656 34.162 27.945 52.477 39.829zM754.296 152.283c18.315-11.884 35.855-25.173 52.477-39.827-34.921-30.763-73.878-55.557-115.634-73.842 26.113 34.26 46.892 73.398 63.156 113.669zM806.977 480.619c-2.496 70.427-13.055 138.179-30.879 199.745 26.966 16.311 52.547 35.237 76.466 56.624 61.63-72.391 98.102-161.44 104.908-256.369z" />
<glyph unicode="&#xe90a;" glyph-name="google" d="M522.208 521.184v-175.584h290.4c-11.808-75.392-87.808-220.8-290.4-220.8-174.816 0-317.408 144.8-317.408 323.2s142.592 323.2 317.408 323.2c99.392 0 166.016-42.4 204-79.008l139.008 133.792c-89.216 83.584-204.8 134.016-343.008 134.016-283.008 0-512-228.992-512-512s228.992-512 512-512c295.392 0 491.616 207.808 491.616 500.192 0 33.6-3.616 59.2-8 84.8l-483.616 0.192z" />
<glyph unicode="&#xe90b;" glyph-name="google-plus1" d="M325.792 502.592v-111.808h184.8c-7.392-48-55.808-140.608-184.8-140.608-111.2 0-202.016 92.192-202.016 205.792s90.816 205.792 202.016 205.792c63.392 0 105.6-27.008 129.792-50.208l88.384 85.184c-56.8 52.992-130.4 85.184-218.208 85.184-180.192-0.192-325.792-145.792-325.792-326.016s145.6-325.792 325.792-325.792c188 0 312.8 132.192 312.8 318.4 0 21.408-2.4 37.792-5.216 54.016h-307.616zM1024 512h-96v96h-96v-96h-96v-96h96v-96h96v96h96z" />
<glyph unicode="&#xe90c;" glyph-name="google-plus3" d="M512 960c-282.816 0-512-229.184-512-512s229.184-512 512-512 512 229.216 512 512-229.216 512-512 512zM384 192c-141.6 0-256 114.4-256 256s114.4 256 256 256c69.184 0 127.008-25.184 171.616-67.008l-69.6-66.816c-19.008 18.208-52.192 39.392-102.016 39.392-87.392 0-158.816-72.416-158.816-161.6s71.392-161.6 158.816-161.6c101.408 0 139.392 72.8 145.216 110.4h-145.184v87.808h241.792c2.208-12.8 4-25.6 4-42.4 0-146.4-98.016-250.208-245.792-250.208zM832 448v-64h-64v64h-64v64h64v64h64v-64h64v-64h-64z" />
<glyph unicode="&#xe90d;" glyph-name="hamburger" d="M0 829.023h972.967v-127h-972.967v127zM0 511.512h972.967v-127h-972.967v127zM0 193.977h972.967v-127h-972.967v127z" />
<glyph unicode="&#xe90e;" glyph-name="home" d="M852.475 408.048c-16.87 0-30.539-13.673-30.539-30.539v-309.909h-619.83v309.909c0 16.866-13.669 30.539-30.539 30.539s-30.539-13.673-30.539-30.539v-340.448c0-16.866 13.669-30.539 30.539-30.539h680.909c16.87 0 30.539 13.673 30.539 30.539v340.448c0 16.866-13.673 30.539-30.539 30.539zM1015.054 399.102l-481.491 481.434c-11.923 11.927-31.26 11.923-43.187 0l-481.43-481.434c-11.927-11.927-11.927-31.264 0-43.187 5.965-5.961 13.783-8.946 21.597-8.946 7.818 0 15.632 2.981 21.597 8.946l459.837 459.841 459.894-459.841c11.923-11.927 31.26-11.923 43.191 0.004 11.918 11.923 11.918 31.26-0.008 43.183z" />
<glyph unicode="&#xe90f;" glyph-name="httpslock" d="M644 617.984v86.016q0 54.016-39.008 93.024t-93.024 39.008-93.024-39.008-39.008-93.024v-86.016h264.032zM512 233.984q34.016 0 60 25.984t25.984 60-25.984 60-60 25.984-60-25.984-25.984-60 25.984-60 60-25.984zM768 617.984q34.016 0 60-24.992t25.984-59.008v-428q0-34.016-25.984-59.008t-60-24.992h-512q-34.016 0-60 24.992t-25.984 59.008v428q0 34.016 25.984 59.008t60 24.992h41.984v86.016q0 88.032 63.008 151.008t151.008 63.008 151.008-63.008 63.008-151.008v-86.016h41.984z" />
<glyph unicode="&#xe910;" glyph-name="ic-box-calendar-white" d="M102.4 550.4v153.6h819.2v-153.6h-819.2zM921.6 806.4h-102.4v153.6h-102.4v-153.6h-409.6v153.6h-102.4v-153.6h-102.4c-56.48 0-102.4-45.984-102.4-102.4v-665.6c0-56.416 45.92-102.4 102.4-102.4h819.2c56.48 0 102.4 45.984 102.4 102.4v665.6c0 56.416-45.92 102.4-102.4 102.4v0z" />
<glyph unicode="&#xe911;" glyph-name="ic-box-clock-timer-white" d="M943.164 684.183c25.54 26.082 41.382 61.741 41.382 101.135 0 79.842-64.663 144.565-144.565 144.565-39.364 0-75.023-15.842-101.105-41.502l204.258-204.228zM41.412 684.183c-25.54 26.082-41.382 61.741-41.382 101.135 0 79.842 64.663 144.565 144.565 144.565 39.364 0 75.023-15.842 101.105-41.502l-204.258-204.228zM608.437 253.289l-144.565 144.565c-9.065 9.005-14.125 21.263-14.125 34.063v240.941h96.376v-221.003l130.44-130.44-68.126-68.126zM497.935 865.641c-239.104 0-433.694-194.59-433.694-433.694s194.59-433.694 433.694-433.694c239.104 0 433.694 194.59 433.694 433.694s-194.59 433.694-433.694 433.694v0z" />
<glyph unicode="&#xe912;" glyph-name="ic-browser-chrome" d="M511.584 640.288c106.048 0 192-86.016 192-192 0-106.080-85.952-192-192-192-105.984 0-192 85.952-192 192 0 105.984 86.016 192 192 192zM511.584 192.256c-129.536 0-236.32 96.256-253.344 221.184l-176.672 306.464-19.744-28.512c-4.864-8.928-9.6-17.984-13.952-27.232l-9.44-22.080c-3.136-7.616-6.24-15.328-9.024-23.2-3.136-8.736-5.856-17.568-8.448-26.432l-5.696-20.384c-2.368-9.504-4.384-19.008-6.208-28.576l-3.456-20.192c-1.408-9.376-2.496-18.688-3.328-28l-1.664-22.304c-0.416-8.512-0.576-16.992-0.576-25.504s0.128-17.024 0.576-25.504l1.664-22.304c0.864-9.312 1.984-18.688 3.328-28l3.456-20.192c1.856-9.568 3.84-19.072 6.208-28.576l5.696-20.384c2.624-8.8 5.312-17.696 8.448-26.432 2.784-7.808 5.92-15.488 9.024-23.2 3.072-7.36 6.016-14.752 9.44-22.048 4.352-9.248 9.088-18.24 13.984-27.264l6.368-12.512 2.944-4.576c5.632-9.632 11.84-18.816 18.112-28l10.048-14.944c6.048-8.256 12.672-16.128 19.296-24.064l13.248-15.872c5.76-6.304 11.936-12.32 18.016-18.368 6.080-6.112 12.064-12.384 18.4-18.048l15.872-13.312c7.936-6.56 15.808-13.184 24.064-19.264l14.816-10.112c9.216-6.304 18.464-12.512 28-18.112l4.544-2.944 12.48-6.368c8.96-4.864 17.984-9.696 27.232-14.016l2.656-1.376 12.96-5.312c34.624-14.752 70.784-25.184 107.648-32.064l146.080 253.312c-17.12-3.424-34.848-5.376-53.056-5.376zM1021.856 483.168l-0.672 8.448c-3.616 42.752-21.184 104.64-35.776 146.176h-302.176c51.68-46.816 84.352-114.24 84.352-189.504 0-81.216-37.92-153.44-96.8-200.32l-180-312.192c63.296 0 148.512 11.424 209.824 35.936l2.080 0.672 3.264 1.376c20.896 8.672 41.568 18.176 61.696 29.824 18.016 10.368 34.88 22.016 51.168 34.176l0.928 0.736c15.68 11.872 30.368 24.512 44.384 37.824l2.176 1.888 7.072 7.2c30.976 31.008 57.568 65.248 79.264 102.176l2.464 3.616 4.448 8.992c6.976 12.672 13.44 25.632 19.328 38.816l7.552 17.76c4.992 12.512 9.344 25.184 13.344 38.016l5.28 16.512c4.896 17.824 8.896 35.808 11.872 54.016l1.248 10.368c2.208 15.616 3.776 31.328 4.576 47.2l0.288 12.704c0.256 15.808-0.064 31.712-1.184 47.584zM954.816 704.288c-10.72 18.56-22.72 35.872-35.328 52.576l-4.128 5.12c-11.328 14.624-23.328 28.512-36 41.568l-8.576 8.8c-13.92 13.696-28.352 26.688-43.488 38.56l-3.328 2.816c-16.864 12.992-34.528 24.672-52.736 35.36l-3.648 2.432-13.856 7.2c-8 4.32-15.968 8.64-24.192 12.512-7.904 3.68-15.872 6.944-23.84 10.24l-20.064 8c-9.696 3.488-19.488 6.432-29.312 9.44l-16.32 4.736c-10.688 2.752-21.472 4.928-32.224 7.008l-15.232 3.008c-10.496 1.696-20.992 2.752-31.52 3.744l-17.248 1.76c-9.024 0.576-18.016 0.512-27.104 0.64l-22.208 0.128-17.28-1.248c-38.208-2.56-76.416-9.376-113.952-20.736l-7.776-2.112c-9.504-3.072-18.88-6.816-28.288-10.496l-18.048-7.136c-7.744-3.296-15.392-7.168-23.072-10.976-7.424-3.648-14.88-7.328-22.176-11.392l-8.32-4.256-12.288-7.936c-7.264-4.48-14.464-9.056-21.536-13.92-6.912-4.832-13.728-9.76-20.384-14.816l-17.6-14.048c-7.264-6.080-14.336-12.256-21.216-18.656l-13.056-12.736c-7.584-7.616-15.008-15.36-22.016-23.36l-4.768-5.76 145.632-252.64c33.44 102.432 129.664 176.576 243.296 176.576h443.2z" />
<glyph unicode="&#xe913;" glyph-name="ic-browser-opera" d="M787.52 879.424c-75.808 51.904-169.632 80.608-275.424 80.608-96.768 0-183.488-23.936-255.648-67.712-138.912-83.424-224.448-239.584-224.448-439.68 0-270.656 191.968-517.216 480-517.216 288 0 479.936 246.496 479.936 517.216-0.032 190.24-77.344 340.768-204.416 426.784zM512.064 864.448c154.496 0 191.872-214.656 191.872-409.632 0-180.672-23.424-422.432-190.016-422.432s-194.080 244.128-194.080 424.768c0.032 194.976 37.696 407.296 192.224 407.296z" />
<glyph unicode="&#xe914;" glyph-name="ic-browser-safari" d="M512 960c-282.752 0-512-229.248-512-512s229.248-512 512-512 512 229.248 512 512-229.248 512-512 512zM512 32c-229.76 0-416 186.24-416 416s186.24 416 416 416 416-186.24 416-416-186.24-416-416-416zM778.048 714.080l-198.144-333.952-135.744 135.776 333.888 198.176zM245.984 181.92l333.92 198.176-135.744 135.776-198.176-333.952z" />
<glyph unicode="&#xe916;" glyph-name="ic-cause-white" d="M1020.544 718.624c-6.048 16.864-21.632 28.032-39.072 28.032h-179.84l-72.768 186.528c-6.336 16.16-21.632 26.784-38.592 26.784-17.024 0-32.32-10.624-38.656-26.784l-72.768-186.528h-179.808c-17.472 0-33.088-11.168-39.104-28.032-5.984-16.8-1.088-35.68 12.256-47.232l156.288-135.328-65.28-153.888 74.048-75.936 152.96 103.68 185.088-125.472c6.944-4.736 14.944-7.072 22.912-7.072 9.536 0 19.040 3.36 26.72 10.016 14.144 12.128 18.752 32.352 11.456 49.664l-84.448 199.040 156.288 135.328c13.344 11.552 18.304 30.432 12.288 47.232zM853.472 165.664c-6.4 15.968-21.632 26.336-38.432 26.336h-357.184l12.192 12.512c16.256 16.672 16.256 43.68 0 60.32l-41.6 42.656c-11.776 12.064-29.408 15.744-44.832 9.472l-150.976-61.92v-276.384h457.6c11.072 0 21.632 4.512 29.408 12.512l124.8 128c11.904 12.192 15.424 30.56 9.024 46.496zM149.44 320h-83.2c-23.008 0-41.6-19.104-41.6-42.656v-298.656c0-23.552 18.592-42.656 41.6-42.656h83.2c23.008 0 41.6 19.104 41.6 42.656v298.656c0 23.552-18.592 42.656-41.6 42.656z" />
<glyph unicode="&#xe917;" glyph-name="ic-charities-benefited" d="M508.352 89.6c0 0-226.752 136.288-226.752 280.672 0 137.12 183.2 196.608 234.080 16.64 50.848 179.968 226.72 120.48 226.72-16.64 0-155.712-214.592-269.312-234.048-280.672zM1008.992 484.192l-460.8 460.8c-19.968 20.032-52.384 20.032-72.384 0l-460.8-460.8c-14.656-14.656-19.040-36.672-11.104-55.808s26.624-31.584 47.296-31.584h51.2v-460.8h819.2v460.8h51.2c20.736 0 39.424 12.448 47.296 31.584 7.936 19.136 3.488 41.152-11.104 55.808z" />
<glyph unicode="&#xe91a;" glyph-name="ic-comment" d="M102.4 960c-56.576 0-102.4-45.824-102.4-102.4v-614.4c0-56.512 45.824-102.4 102.4-102.4h153.536v-204.8l204.864 204.8h460.8c56.576 0 102.4 45.888 102.4 102.4v614.4c0 56.576-45.824 102.4-102.4 102.4h-819.2z" />
<glyph unicode="&#xe91c;" glyph-name="ic-crowdfunding" d="M810.656 869.344c70.56 0 128-61.024 128-136s-57.44-136-128-136c-70.56 0-128 61.024-128 136s57.44 136 128 136zM810.656 506.656c117.632 0 213.344 101.696 213.344 226.656s-95.712 226.656-213.344 226.656c-117.632 0-213.344-101.696-213.344-226.656s95.712-226.656 213.344-226.656zM934.176 254.944c-8.928 18.944-28.96 28.864-48.544 23.648l-325.984-86.592-103.648 55.072 43.488 46.144c16.672 17.728 16.672 46.432 0 64.096l-42.656 45.344c-12.064 12.832-30.080 16.736-46.048 10.048l-197.472-83.904v-321.248l336.096-44.608c1.76-0.224 3.488-0.32 5.248-0.32 4.608 0 9.12 0.768 13.536 2.304l384 136c11.744 4.096 21.152 13.504 25.888 25.664 4.768 12.096 4.256 25.888-1.248 37.632l-42.656 90.656zM128 370.656h-85.344c-23.552 0-42.656-20.352-42.656-45.344v-317.344c0-25.024 19.104-45.344 42.656-45.344h85.344c23.552 0 42.656 20.32 42.656 45.344v317.344c0 24.992-19.104 45.344-42.656 45.344z" />
<glyph unicode="&#xe91e;" glyph-name="ic-doc" d="M863.968 667.36l-149.728-454.496h-124.288l-85.44 263.392-89.6-263.392h-123.936l-139.744 454.496h127.296l81.408-293.696 99.264 293.696h96.736l92.352-293.696 88.64 293.696h127.040zM1024-18.048h-1024v978.048h1024v-978.048zM98.4 80.352h827.104v781.184h-827.104z" />
<glyph unicode="&#xe91f;" glyph-name="ic-donations" d="M512 960c-282.304 0-512-229.632-512-512s229.696-512 512-512c282.368 0 512 229.632 512 512s-229.632 512-512 512v0zM665.6 550.4h-179.2c-14.080 0-25.6-11.52-25.6-25.6 0-14.144 11.52-25.6 25.6-25.6h51.2c70.592 0 128-57.44 128-128 0-61.856-44.032-113.504-102.4-125.376v-53.824h-102.4v51.2h-102.4v102.4h179.2c14.144 0 25.6 11.456 25.6 25.6 0 14.080-11.456 25.6-25.6 25.6h-51.2c-70.56 0-128 57.44-128 128 0 61.76 44.032 113.504 102.4 125.376v53.824h102.4v-51.2h102.4v-102.4z" />
<glyph unicode="&#xe921;" glyph-name="ic-edit-request" d="M529.408 752.448l-412.576-412.672 274.080-274.080 412.608 412.608zM871.616 546.4l34.656 34.624c75.552 75.584 75.552 198.528-0.064 274.176-75.552 75.552-198.528 75.552-274.144 0l-34.56-34.656 274.080-274.144zM308.064 12.352l-248.288-62.080c-16.416-4.032-33.76 0.768-45.696 12.704-12 11.936-16.768 29.28-12.672 45.696l62.016 248.288 244.608-244.608z" />
<glyph unicode="&#xe922;" glyph-name="ic-employees-involved" d="M169.49 250.262c0 29.749 5.385 58.174 14.83 84.745h-43.043c-78.001 0-141.277-49.117-141.277-127.117v-42.372h169.49v84.745zM321.677 482.94c0 0.124 0.035 0.247 0.035 0.388 0 58.509-47.457 105.931-105.966 105.931-58.474 0-105.896-47.422-105.896-105.931 0-54.696 41.56-99.151 94.702-104.836 27.030 46.009 67.972 82.803 117.124 104.448zM808.96 589.241c-58.474 0-105.896-47.422-105.896-105.931 0-1.483 0.388-2.878 0.424-4.361 45.762-22.122 83.809-57.45 109.321-101.182 56.691 2.083 102.118 48.34 102.118 105.543 0 58.509-47.457 105.931-105.966 105.931zM875.661 335.007h-43.043c9.446-26.571 14.83-54.996 14.83-84.745v-84.745h169.49v42.372c0 78.001-63.258 127.117-141.277 127.117zM254.234 165.517h508.469v84.745c0 81.178-57.167 148.851-133.35 165.429-34.357-23.976-75.882-38.312-120.885-38.312s-86.528 14.318-120.885 38.312c-76.182-16.561-133.35-84.233-133.35-165.429v-84.745zM635.586 589.241c0-70.215-56.903-127.117-127.117-127.117s-127.117 56.903-127.117 127.117c0 70.215 56.903 127.117 127.117 127.117s127.117-56.903 127.117-127.117z" />
<glyph unicode="&#xe923;" glyph-name="ic-facebook" d="M439.648 190.944h103.072v249.472h68.768l9.12 85.952h-77.856l0.096 43.040c0 22.4 2.144 34.432 34.304 34.432h42.976v85.984h-68.768c-82.624 0-111.68-41.696-111.68-111.84v-51.616h-51.488v-85.984h51.488v-249.44zM504.352-18.144c-253.216 0-458.496 205.28-458.496 458.496s205.28 458.496 458.496 458.496 458.496-205.28 458.496-458.496c0-253.216-205.28-458.496-458.496-458.496z" />
<glyph unicode="&#xe924;" glyph-name="ic-feed" d="M614.4 396.8h-614.4v-409.6c0-28.32 22.944-51.2 51.2-51.2h563.2v460.8zM614.4 499.2v460.8h-563.2c-28.256 0-51.2-22.944-51.2-51.2v-409.6h614.4zM972.8 960h-256v-1024h256c28.256 0 51.2 22.88 51.2 51.2v921.6c0 28.256-22.944 51.2-51.2 51.2z" />
<glyph unicode="&#xe925;" glyph-name="ic-file" d="M705.792 948h-491.008c-14.592 0-26.592-12-26.592-26.592v-513.6h53.216v487.008h464.384v-184.416h184.384v-709.216h-648.8v99.616h-53.184v-126.208c0-14.592 12-26.592 26.592-26.592h702.016c14.592 0 26.592 12 26.592 26.592v735.808l-237.6 237.6zM312.384 617.184h506.816v-39.2h-506.816v39.2zM312.384 540.992h426.592v-39.2h-426.592v39.2zM731.2 388.192h-650.592v-267.808h552.608l98.016 267.808z" />
<glyph unicode="&#xe926;" glyph-name="ic-file-upload" d="M481.888 236.608l343.776 343.776-85.184 85.184-198.368-198.368-0.064 492.8h-120.48l0.064-492.8-198.368 198.368-85.184-85.184zM844.416 175.392l1.056-118.912h-724v118.912h-120.48l1.184-118.912c0-66.368 53.984-120.48 120.48-120.48h722.816c66.496 0 120.48 54.080 120.48 120.48l-1.056 118.592-120.48 0.352z" />
<glyph unicode="&#xe92b;" glyph-name="ic-go-back" d="M733.407 106.741h-254.419v101.754h254.419c84.168 0 152.643 68.497 152.643 152.643s-68.497 152.643-152.643 152.643h-538.646l116.669-116.669-71.947-71.947-239.505 239.505 239.505 239.505 71.947-71.947-116.669-116.669h538.646c140.288 0 254.419-114.131 254.419-254.419s-114.131-254.419-254.419-254.419z" />
<glyph unicode="&#xe92c;" glyph-name="ic-goods" d="M910.917 890.811c55.877 0 101.21-45.443 101.21-101.21v-151.829h-1012.127v151.829c0 55.766 45.333 101.21 101.21 101.21h809.707zM354.249 384.733v101.21h303.63v-101.21h-303.63zM50.619 587.181v-455.459c0-55.822 45.333-101.21 101.21-101.21h708.497c55.877 0 101.21 45.388 101.21 101.21v455.459h-910.917z" />
<glyph unicode="&#xe92e;" glyph-name="ic-hourglass-ended" d="M332.8 806.4h307.2l-153.6-153.6-153.6 153.6zM128 98.4v-111.2c0-28.256 22.944-51.2 51.2-51.2h614.4c28.256 0 51.2 22.944 51.2 51.2v111.2c0 40.448-16.384 79.968-44.992 108.608l-240.992 240.992 240.992 240.992c29.024 29.024 44.992 67.584 44.992 108.64v111.168c0 28.256-22.944 51.2-51.2 51.2h-614.4c-28.256 0-51.2-22.944-51.2-51.2v-111.168c0-41.056 15.968-79.616 44.992-108.608l240.992-241.056-240.992-240.992c-28.608-28.608-44.992-68.16-44.992-108.608v0z" />
<glyph unicode="&#xe92f;" glyph-name="ic-hours" d="M943.164 684.183c25.54 26.082 41.382 61.741 41.382 101.135 0 79.842-64.663 144.565-144.565 144.565-39.364 0-75.023-15.842-101.105-41.502l204.258-204.228zM41.412 684.183c-25.54 26.082-41.382 61.741-41.382 101.135 0 79.842 64.663 144.565 144.565 144.565 39.364 0 75.023-15.842 101.105-41.502l-204.258-204.228zM608.437 253.289l-144.565 144.565c-9.065 9.005-14.125 21.263-14.125 34.063v240.941h96.376v-221.003l130.44-130.44-68.126-68.126zM497.935 865.641c-239.104 0-433.694-194.59-433.694-433.694s194.59-433.694 433.694-433.694c239.104 0 433.694 194.59 433.694 433.694s-194.59 433.694-433.694 433.694v0z" />
<glyph unicode="&#xe931;" glyph-name="ic-instagram" d="M695.616 519.424v81.952l-81.952-0.288 0.256-81.92zM509.792 330.208c46.912 0 85.12 38.176 85.12 85.088 0 18.528-6.048 35.68-16.128 49.632-15.456 21.408-40.608 35.488-68.992 35.488s-53.504-14.080-68.992-35.488c-10.112-13.952-16.096-31.136-16.096-49.632 0-46.912 38.176-85.088 85.088-85.088zM512.032 866.848c-245.632 0-444.768-199.104-444.768-444.736s199.136-444.768 444.768-444.768c245.6 0 444.736 199.136 444.736 444.768s-199.168 444.736-444.736 444.736zM751.584 464.928v-197.984c0-51.52-41.952-93.408-93.44-93.408h-296.672c-51.52 0-93.44 41.888-93.44 93.408v296.672c0 51.52 41.888 93.44 93.44 93.44h296.672c51.52 0 93.44-41.888 93.44-93.44v-98.688zM642.016 415.296c0-72.896-59.296-132.224-132.224-132.224s-132.192 59.328-132.192 132.224c0 17.568 3.488 34.272 9.696 49.632h-72.192v-197.984c0-25.536 20.768-46.304 46.304-46.304h296.672c25.536 0 46.304 20.768 46.304 46.304v197.984h-72.224c6.272-15.36 9.792-32.064 9.792-49.632z" />
<glyph unicode="&#xe932;" glyph-name="ic-location" d="M514.72 473.6c-72.224 0-130.848 57.28-130.848 128s58.624 128 130.848 128c72.288 0 130.848-57.28 130.848-128s-58.56-128-130.848-128zM514.72 960c-202.368 0-366.4-160.448-366.4-358.4 0-256 366.4-665.6 366.4-665.6s366.4 409.6 366.4 665.6c0 197.952-164.032 358.4-366.4 358.4z" />
<glyph unicode="&#xe933;" glyph-name="ic-menu-auctions" d="M384 106.72c0 23.552-19.104 42.656-42.656 42.656h-256c-23.552 0-42.656-19.104-42.656-42.656v-85.344h-42.656v-85.344h426.656v85.344h-42.656v85.344zM328.832 648.896c-16.672 16.608-43.648 16.608-60.32 0l-85.344-85.344c-16.672-16.64-16.672-43.68 0-60.384l256-256c8.32-8.352 19.232-12.448 30.176-12.448s21.856 4.096 30.176 12.448l85.344 85.344c16.672 16.672 16.672 43.744 0 60.384l-256 256zM737.824 545.888c8.32-8.416 19.232-12.448 30.176-12.448s21.856 4.064 30.176 12.448l85.344 85.344c16.672 16.672 16.672 43.68 0 60.384l-256 256c-16.672 16.544-43.648 16.544-60.32 0l-85.344-85.344c-16.672-16.672-16.672-43.68 0-60.384l256-256zM1011.488 179.552l-334.304 334.24c8.448 16.032 6.496 36.224-7.040 49.76l-170.656 170.656c-16.672 16.608-43.648 16.608-60.32 0l-42.656-42.656c-16.672-16.64-16.672-43.68 0-60.384l170.656-170.656c8.32-8.352 19.232-12.448 30.176-12.448 6.816 0 13.344 2.176 19.552 5.408l334.304-334.304 60.32 60.384z" />
<glyph unicode="&#xe934;" glyph-name="ic-menu-donations" d="M739.527 903.111c-90.681 0-174.62-47.588-227.556-118.3-52.878 70.713-136.875 118.3-227.556 118.3-156.786 0-284.416-127.545-284.416-284.416 0-312.405 462.137-604.843 481.906-617.159 9.188-5.746 19.655-8.647 30.066-8.647 10.496 0 20.878 2.901 30.151 8.647 19.74 12.316 481.906 304.754 481.906 617.159 0 156.843-127.63 284.416-284.473 284.416z" />
<glyph unicode="&#xe935;" glyph-name="ic-menu-manage-store" d="M119.356 383.849h-79.571c-22.016 0-39.785-17.83-39.785-39.785v-278.498c0-21.956 17.769-39.785 39.785-39.785h79.571c22.016 0 39.785 17.83 39.785 39.785v278.498c0 21.956-17.769 39.785-39.785 39.785zM641.084 473.178h91.347v137.005h-91.347v-137.005zM719.029 916.51c-17.86 17.86-46.712 17.86-64.572 0l-274.010-274.010 64.572-64.572 59.061 59.061v-209.438c0-25.269 20.42-45.658 45.658-45.658h274.010c25.269 0 45.658 20.42 45.658 45.658v209.438l59.061-59.061 64.572 64.572-274.010 274.010zM881.363 271.089c-8.403 17.83-27.256 27.166-45.688 22.257l-306.808-81.498-97.551 51.832 40.93 43.43c15.691 16.685 15.691 43.701 0 60.326l-40.147 42.677c-11.354 12.077-28.311 15.752-43.339 9.457l-185.856-78.968v-302.321l316.326-41.984c1.656-0.211 3.283-0.301 4.939-0.301 4.337 0 8.584 0.723 12.74 2.168l361.412 128c11.053 3.855 19.908 12.71 24.365 24.154 4.488 11.384 4.006 24.365-1.175 35.418l-40.147 85.323z" />
<glyph unicode="&#xe936;" glyph-name="ic-menu-payments" d="M0 207.789h856.493v621.235h-856.493v-621.235zM85.659 518.418v221.875h471.064l214.111-221.875v-221.875h-471.064l-214.111 221.875zM428.246 651.538c-70.918 0-128.476-59.606-128.476-133.12s57.558-133.12 128.476-133.12c70.918 0 128.476 59.606 128.476 133.12s-57.558 133.12-128.476 133.12zM899.31 651.538v-488.115h-728.016v-88.755h813.651v576.869z" />
<glyph unicode="&#xe937;" glyph-name="ic-menu-requests-gray" d="M845.92 893.536h-89.056v-89.056h89.056v-133.568l-94.624-38.944-38.944-116.864-155.84 194.784 38.944 155.84v94.24c-114.112-46.336-194.784-158.144-194.784-289.024 0-172.16 139.488-311.648 311.648-311.648s311.648 139.488 311.648 311.648c0 115.296-62.72 216.256-155.84 269.568l-22.272-46.976zM133.568 359.296h-89.056c-24.576 0-44.512-19.904-44.512-44.512v-311.648c0-24.608 19.936-44.512 44.512-44.512h89.056c24.576 0 44.512 19.904 44.512 44.512v311.648c0 24.608-19.936 44.512-44.512 44.512zM943.456 256.864c-8.928 18.944-28.96 28.864-48.544 23.648l-325.984-86.592-103.648 55.072 43.488 46.144c16.672 17.728 16.672 46.432 0 64.096l-42.656 45.344c-12.064 12.832-30.080 16.736-46.048 10.048l-197.472-83.904v-321.216l336.096-44.608c1.76-0.224 3.488-0.32 5.248-0.32 4.608 0 9.12 0.768 13.536 2.304l384 136c11.744 4.096 21.152 13.504 25.888 25.664 4.768 12.096 4.256 25.888-1.248 37.632l-42.656 90.656z" />
<glyph unicode="&#xe938;" glyph-name="ic-menu-store" d="M214.851 786.944h92.915l-65.859-230.562h-125.898l98.816 230.562zM553.364 786.944h57.452l65.859-230.562h-123.311v230.562zM337.839 556.355l65.859 230.562h57.452v-230.562h-123.311zM898.425 556.355h-125.844l-65.859 230.562h92.915l98.762-230.562zM230.562 187.473h230.562v184.455h-230.562v-184.455zM1010.769 528.411l-138.348 322.803c-7.249 16.977-23.929 27.944-42.388 27.944h-645.578c-18.486 0-35.139-10.968-42.388-27.944l-138.348-322.803c-6.144-14.255-4.662-30.612 3.88-43.574 8.488-12.962 23.013-20.696 38.508-20.696h46.107v-368.909c0-25.465 20.669-46.107 46.107-46.107h461.123v322.803h184.455v-322.803h92.214c25.465 0 46.107 20.669 46.107 46.107v368.909h46.107c15.495 0 29.965 7.734 38.508 20.696 8.488 12.962 9.997 29.319 3.88 43.574v0z" />
<glyph unicode="&#xe939;" glyph-name="ic-notification-bell" d="M343.68 140.8c0-93.216 73.344-168.736 163.84-168.736s163.84 75.52 163.84 168.736zM776.608 682.848v-221.728l212.576-217.888c9.568-9.92 12.48-24.896 7.328-37.856-5.216-12.96-17.504-21.408-31.168-21.408h-915.712c-13.6 0-25.888 8.416-31.040 21.408-5.216 12.96-2.368 27.936 7.264 37.856l212.576 217.888v221.728c0 153.056 120.512 277.152 269.088 277.152s269.088-124.096 269.088-277.152v0z" />
<glyph unicode="&#xe93b;" glyph-name="icon-delete" d="M355.392 960v-107.776h-323.36v-107.776h970.112v107.776h-323.424v107.776zM570.944 151.584v323.36h107.776v-323.36h-107.776zM355.36 151.584v323.36h107.776v-323.36h-107.776zM139.776 690.528v-646.752c0-59.392 48.352-107.776 107.776-107.776h538.944c59.456 0 107.776 48.384 107.776 107.776v646.752h-754.528z" />
<glyph unicode="&#xe93c;" glyph-name="icon-faq" d="M665.6 192h-307.2v102.4h102.4v153.6h-51.2v102.4h102.4c28.32 0 51.2-22.944 51.2-51.2v-204.8h102.4v-102.4zM512 716.8c35.328 0 64-28.672 64-64s-28.672-64-64-64c-35.328 0-64 28.672-64 64s28.672 64 64 64v0zM512 960c-282.304 0-512-229.696-512-512 0-282.368 229.696-512 512-512s512 229.632 512 512c0 282.304-229.696 512-512 512v0z" />
<glyph unicode="&#xe93d;" glyph-name="icon-feed" d="M614.4 396.8h-614.4v-409.6c0-28.32 22.944-51.2 51.2-51.2h563.2v460.8zM614.4 499.2v460.8h-563.2c-28.256 0-51.2-22.944-51.2-51.2v-409.6h614.4zM972.8 960h-256v-1024h256c28.256 0 51.2 22.88 51.2 51.2v921.6c0 28.256-22.944 51.2-51.2 51.2z" />
<glyph unicode="&#xe93e;" glyph-name="icon-giftcards" d="M51.2 347.104v-307.2c0-56.48 45.888-102.4 102.4-102.4h307.2v409.6h-409.6zM563.2 347.104v-409.6h307.2c56.512 0 102.4 45.92 102.4 102.4v307.2h-409.6zM623.296 714.4c9.472 45.248 27.040 99.424 57.28 129.696 9.664 9.664 22.528 14.944 36.192 14.944 13.728 0 26.56-5.28 36.16-14.912 19.968-20.032 20.032-52.544 0.064-72.448-30.272-30.304-84.48-47.872-129.696-57.28zM270.976 771.712c-19.904 19.968-19.904 52.416 0 72.384 9.664 9.664 22.528 14.944 36.192 14.944 13.728 0 26.56-5.28 36.192-14.944 30.208-30.208 47.808-84.384 57.248-129.6-45.056 9.472-99.648 27.136-129.632 57.184zM921.6 654.304h-159.424c23.104 12.032 44.96 26.72 63.232 44.96 59.84 59.84 59.84 157.28 0 217.28-58.048 57.952-159.072 57.952-217.184-0.064-83.808-83.776-95.072-241.504-96.096-259.232-0.096-1.088 0.416-1.952 0.416-2.976h-1.024c0 1.024 0.512 1.888 0.416 2.976-0.96 17.728-12.288 175.456-96.096 259.264-58.048 57.952-159.168 57.952-217.184-0.064-59.904-59.904-59.904-157.344 0-217.248 18.272-18.24 40.128-32.928 63.296-44.96h-159.488c-56.48 0-102.4-45.888-102.4-102.4v-153.6h460.8v204.8h102.4v-204.8h460.8v153.6c0 56.512-45.888 102.4-102.4 102.4z" />
<glyph unicode="&#xe93f;" glyph-name="icon-growdfunding" d="M810.656 869.344c70.56 0 128-61.024 128-136s-57.44-136-128-136c-70.56 0-128 61.024-128 136s57.44 136 128 136zM810.656 506.656c117.632 0 213.344 101.696 213.344 226.656s-95.712 226.656-213.344 226.656c-117.632 0-213.344-101.696-213.344-226.656s95.712-226.656 213.344-226.656zM934.176 254.944c-8.928 18.944-28.96 28.864-48.544 23.648l-325.984-86.592-103.648 55.072 43.488 46.144c16.672 17.728 16.672 46.432 0 64.096l-42.656 45.344c-12.064 12.832-30.080 16.736-46.048 10.048l-197.472-83.904v-321.248l336.096-44.608c1.76-0.224 3.488-0.32 5.248-0.32 4.608 0 9.12 0.768 13.536 2.304l384 136c11.744 4.096 21.152 13.504 25.888 25.664 4.768 12.096 4.256 25.888-1.248 37.632l-42.656 90.656zM128 370.656h-85.344c-23.552 0-42.656-20.352-42.656-45.344v-317.344c0-25.024 19.104-45.344 42.656-45.344h85.344c23.552 0 42.656 20.32 42.656 45.344v317.344c0 24.992-19.104 45.344-42.656 45.344z" />
<glyph unicode="&#xe940;" glyph-name="icon-manage-employees" d="M355.2 737.952c0 73.44-59.744 133.184-133.184 133.184s-133.184-59.744-133.184-133.184c0-73.44 59.744-133.184 133.184-133.184s133.184 59.744 133.184 133.184zM221.984 604.768c-122.4 0-221.984-99.584-221.984-221.984v-133.184c0-24.512 19.904-44.384 44.384-44.384h44.384v-177.6c0-24.512 19.904-44.384 44.384-44.384h177.6c24.512 0 44.384 19.904 44.384 44.384v177.6h44.384c24.512 0 44.384 19.904 44.384 44.384v133.184c0 122.4-99.584 221.984-221.984 221.984zM710.272 604.8c-49.056 0-88.8 39.776-88.8 88.8s39.744 88.8 88.8 88.8c49.024 0 88.8-39.776 88.8-88.8s-39.776-88.8-88.8-88.8v0zM976.768 649.216v88.8h-48.896c-5.824 28.32-17.088 54.56-32.576 77.888l34.848 34.816-62.784 62.784-34.912-34.816c-23.232 15.392-49.472 26.72-77.728 32.352v48.96h-88.8v-48.96c-28.288-5.632-54.528-16.96-77.792-32.416l-34.816 34.752-62.784-62.784 34.752-34.752c-15.392-23.264-26.688-49.536-32.512-77.824h-48.928v-88.8h48.928c5.824-28.384 17.088-54.56 32.512-77.888l-34.752-34.816 62.816-62.72 34.752 34.816c23.296-15.488 49.6-26.784 77.824-32.512v-48.928h88.8v48.96c28.288 5.728 54.56 16.992 77.824 32.512l34.848-34.752 62.72 62.816-34.848 34.72c15.456 23.232 26.72 49.504 32.544 77.792h48.896z" />
<glyph unicode="&#xe941;" glyph-name="icon-payments" d="M0 207.789h856.493v621.235h-856.493v-621.235zM85.659 518.418v221.875h471.064l214.111-221.875v-221.875h-471.064l-214.111 221.875zM428.246 651.538c-70.918 0-128.476-59.606-128.476-133.12s57.558-133.12 128.476-133.12c70.918 0 128.476 59.606 128.476 133.12s-57.558 133.12-128.476 133.12zM899.31 651.538v-488.115h-728.016v-88.755h813.651v576.869z" />
<glyph unicode="&#xe943;" glyph-name="icons-manage-employees" d="M341.344 277.344c94.112 0 170.656 76.544 170.656 170.656s-76.544 170.656-170.656 170.656c-94.112 0-170.656-76.544-170.656-170.656s76.544-170.656 170.656-170.656zM341.344 234.656c-200.96 0-341.344-105.248-341.344-256v-42.656h682.656v42.656c0 150.752-140.384 256-341.344 256zM768 960l73.12-182.88h182.88l-158.208-133.536 85.024-195.584-182.816 120.928-182.88-120.928 85.088 195.584-158.208 133.536h182.816z" />
<glyph unicode="&#xe944;" glyph-name="icon-statistics" d="M0 51.948h1020.245v102.032h-1020.245zM408.103 204.997h204.039v306.071h-204.039zM714.174 204.997h204.039v612.142h-204.039zM102.032 204.997h204.039v408.103h-204.039z" />
<glyph unicode="&#xe945;" glyph-name="icon-volunteering" d="M801.152 55.2c0 13.248-10.752 24-24 24h-439.328c-13.248 0-24-10.752-24-24v-94.976c0-13.248 10.752-24 24-24h439.328c13.248 0 24 10.752 24 24v94.976zM705.856 371.008c0-26.912-11.392-51.136-29.632-68.224l-135.072-128.864c-2.432-2.592-5.888-4.224-9.76-4.224-4.16 0-7.84 1.888-10.304 4.832l-134.432 128.256c-18.24 17.088-29.632 41.312-29.632 68.224 0 51.712 42.048 93.6 93.92 93.6 34.176 0 64.064-18.176 80.512-45.376 16.416 27.2 46.336 45.376 80.48 45.376 51.872 0 93.92-41.92 93.92-93.6zM493.472 961.92c-17.28 0-32.096-6.208-44.48-18.592s-18.592-27.232-18.592-44.48v-369.472h-18.016v297.376c0 17.28-6.208 32.096-18.592 44.48s-27.232 18.592-44.48 18.592c-17.28 0-32.096-6.208-44.48-18.592s-18.592-27.232-18.592-44.48l-14.144-484.096-72.576 157.984c-14.272 19.136-33.408 28.736-57.44 28.736-19.904 0-36.896-7.040-50.976-21.12s-21.12-31.072-21.12-50.976c0-16.16 4.896-30.592 14.656-43.36l216.288-288.384c14.272-19.136 33.408-28.736 57.44-28.736h387.488c12.768 0 24.224 4.128 34.368 12.384s16.512 18.784 19.136 31.552l42.816 228.096c1.888 12 2.816 23.104 2.816 33.216v280.48c0 17.28-6.208 32.096-18.592 44.48s-27.232 18.592-44.48 18.592c-17.28 0-32.096-6.208-44.48-18.592s-18.592-27.232-18.592-44.48v-153.184h-18.016v297.376c0 17.28-6.208 32.096-18.592 44.48s-27.232 18.592-44.48 18.592c-17.28 0-32.096-6.208-44.48-18.592s-18.592-27.232-18.592-44.48v-297.376h-18.016v369.472c0 17.28-6.208 32.096-18.592 44.48s-27.232 18.592-44.48 18.592z" />
<glyph unicode="&#xe947;" glyph-name="ic-ppt" d="M590.784 519.104c0 18.272-5.664 32.8-16.864 43.808-11.232 10.88-30.432 16.352-57.568 16.352h-45.088v-122.080h44.768c29.088 0 49.024 6.048 59.84 18.048 9.92 10.784 14.912 25.408 14.912 43.904zM710.24 520.32c0-40.384-10.112-73.728-30.496-100.128-26.272-34.208-69.952-51.264-131.008-51.264h-77.504v-156.096h-119.616v454.592h195.008c55.456 0 97.6-15.392 126.368-46.144 24.8-26.304 37.248-60 37.248-100.96zM1024-17.984h-1024v977.984h1024v-977.984zM98.4 80.384h827.104v781.216h-827.104z" />
<glyph unicode="&#xe948;" glyph-name="ic-request-goods-gray" d="M523.5 764.652c-74.936 0-135.719 46.316-135.719 103.398h271.439c0-57.081-60.784-103.398-135.719-103.398zM1013.392 702.608l-206.795 155.097c-8.98 6.669-19.824 10.345-30.956 10.345h-517.146c-11.133 0-21.977-3.65-30.956-10.345l-206.795-155.097c-21.977-16.515-27.28-47.262-11.999-70l103.319-155.097c14.494-21.767 42.877-29.223 66.219-17.592l28.567 14.283v-381.663c0-28.646 23.132-51.699 51.62-51.699h517.146c28.514 0 51.62 23.053 51.62 51.699v381.663l28.567-14.283c23.342-11.632 51.699-4.175 66.219 17.592l103.319 155.097c15.307 22.764 9.977 53.484-11.999 70z" />
<glyph unicode="&#xe949;" glyph-name="ic-request-volunteering-gray" d="M475.456-60.704c-25.6-0.064-50.24 8.736-69.952 25.216-34.016 28.352-69.248 56.864-105.472 85.312-91.36 72-181.088 137.44-268.064 196.992 69.408 187.456 218.656 55.456 297.44 0.544v589.28c0 21.728 17.568 39.392 39.392 39.392h39.392c21.728 0 39.392-17.632 39.392-39.392v-343.040h60.032v427.008c0 21.664 17.632 39.392 39.392 39.392h39.392c21.824 0 39.392-17.728 39.392-39.392v-427.008h54.592v377.792c0 21.824 17.568 39.392 39.392 39.392h39.392c21.728 0 39.392-17.568 39.392-39.392v-377.792h57.28v253.088c0 21.824 17.632 39.392 39.392 39.392h39.392c21.728 0 39.392-17.568 39.392-39.392v-586.432c0-8.032-0.544-16.384-1.568-25.056-14.016-113.504-117.44-194.88-231.744-195.2l-265.152-0.704z" />
<glyph unicode="&#xe94a;" glyph-name="ic-settings" d="M939.904 328.416l-83.424 61.92c0.192 1.28 0.352 2.528 0.544 3.808 0.096 0.512 0.16 1.056 0.224 1.568 0.832 5.408 1.504 10.784 2.048 16.192 0.032 0.288 0.064 0.544 0.096 0.832 0.576 5.632 0.992 11.264 1.28 16.928 0.032 0.256 0.032 0.48 0.032 0.736 0.288 5.568 0.416 11.168 0.448 16.736 0 0.288 0 0.544 0 0.832s0 0.64 0 0.928c0 1.216 0.032 2.432 0 3.648 0 0.224 0 0.448 0 0.672-0.032 2.432-0.16 4.864-0.224 7.264-0.064 1.504-0.128 3.008-0.192 4.48-0.16 2.976-0.288 5.952-0.48 8.928-0.032 0.288-0.064 0.608-0.096 0.928-0.064 0.864-0.16 1.76-0.224 2.624-0.128 1.568-0.32 3.136-0.48 4.736-0.032 0.352-0.064 0.672-0.096 1.024-0.032 0.192-0.032 0.384-0.064 0.576-0.096 0.8-0.16 1.6-0.224 2.4-0.096 0.992-0.16 1.984-0.288 2.944-0.064 0.512-0.16 1.024-0.192 1.504-0.064 0.544-0.16 1.12-0.256 1.664-0.512 4.064-1.088 8.096-1.728 12.128-0.064 0.352-0.096 0.704-0.128 1.056l83.52 62.016c19.808 11.424 26.592 36.768 15.168 56.576l-69.056 119.584c-11.456 19.808-36.768 26.592-56.576 15.168l-95.488-41.344c-0.544 0.448-1.12 0.832-1.632 1.248-0.256 0.192-0.48 0.416-0.736 0.608-1.216 0.992-2.496 1.952-3.744 2.944-1.376 1.088-2.72 2.144-4.096 3.168-1.12 0.864-2.272 1.696-3.392 2.528-0.512 0.416-1.056 0.8-1.6 1.184-0.928 0.672-1.824 1.376-2.784 2.048-0.512 0.384-1.024 0.736-1.536 1.12-1.312 0.928-2.592 1.792-3.904 2.72-0.32 0.224-0.64 0.448-0.992 0.672-0.576 0.384-1.152 0.768-1.696 1.184-1.92 1.312-3.84 2.592-5.76 3.84-0.224 0.128-0.448 0.256-0.64 0.416-3.168 2.048-6.336 4.064-9.568 6.016-0.832 0.512-1.664 0.96-2.496 1.44-6.944 4.096-14.016 8-21.248 11.616-0.16 0.064-0.288 0.128-0.416 0.192-9.376 4.672-18.976 8.928-28.832 12.768-0.288 0.096-0.544 0.192-0.832 0.32-1.248 0.48-2.496 1.024-3.744 1.504l-11.936 103.392c0 22.88-18.528 41.44-41.408 41.44h-138.048c-22.88 0-41.408-18.528-41.408-41.44l-11.936-103.392c-0.576-0.192-1.088-0.448-1.664-0.672-0.64-0.256-1.312-0.512-1.952-0.768-3.808-1.472-7.584-3.008-11.328-4.608-0.672-0.288-1.344-0.608-2.016-0.864-3.392-1.472-6.752-3.008-10.112-4.576-0.352-0.16-0.704-0.352-1.056-0.512-0.448-0.192-0.864-0.416-1.312-0.608-1.216-0.608-2.432-1.184-3.648-1.792-2.816-1.408-5.6-2.848-8.352-4.32-2.016-1.056-4.032-2.112-6.016-3.2-1.248-0.704-2.496-1.44-3.744-2.176-0.096-0.064-0.192-0.096-0.288-0.16-0.224-0.128-0.48-0.224-0.704-0.352-0.416-0.224-0.768-0.512-1.184-0.736-4.512-2.624-8.96-5.344-13.376-8.192-0.512-0.32-0.992-0.64-1.504-0.96s-1.024-0.672-1.536-0.992c-0.16-0.096-0.288-0.192-0.448-0.288-3.744-2.496-7.456-5.056-11.136-7.68-0.512-0.352-1.024-0.736-1.536-1.12-4.096-2.976-8.16-6.048-12.128-9.216-0.672-0.544-1.376-1.088-2.080-1.632-0.864-0.704-1.76-1.376-2.624-2.112l-95.36 41.28c-19.808 11.424-45.152 4.64-56.608-15.168l-69.056-119.552c-11.456-19.84-4.64-45.184 15.168-56.608l83.424-61.92c-0.16-0.992-0.288-2.016-0.448-3.008-0.16-1.152-0.352-2.272-0.512-3.424-0.704-4.768-1.312-9.504-1.824-14.24-0.096-0.928-0.192-1.856-0.288-2.816-0.416-4.256-0.768-8.512-1.024-12.768 0-0.32-0.032-0.672-0.064-0.992s-0.032-0.736-0.064-1.088c-0.064-0.928-0.096-1.888-0.16-2.816-0.224-4.832-0.352-9.696-0.352-14.528 0-0.672-0.064-1.344-0.064-2.016 0-0.736 0.032-1.472 0.032-2.208 0-0.544 0-1.088 0-1.6 0-0.576 0-1.184 0-1.76 0.032-1.984 0.128-3.968 0.192-5.952 0.096-2.56 0.224-5.12 0.352-7.68 0.128-2.144 0.192-4.288 0.352-6.432 0.032-0.288 0.064-0.608 0.064-0.928 0.096-1.056 0.16-2.144 0.256-3.168 0.096-1.376 0.256-2.72 0.416-4.096 0.288-3.072 0.608-6.144 0.96-9.216 0-0.032 0-0.096 0-0.128 0.576-4.544 1.216-9.088 1.952-13.568 0.032-0.256 0.064-0.512 0.096-0.8l-83.424-61.952c-19.808-11.456-26.624-36.768-15.168-56.576l69.056-119.584c11.424-19.808 36.768-26.592 56.576-15.168l95.328 41.248c0.672-0.544 1.344-0.992 2.016-1.536 0.128-0.096 0.256-0.192 0.352-0.256 0 0 0.032 0 0.032-0.032 1.024-0.832 2.080-1.632 3.136-2.464 1.632-1.28 3.264-2.592 4.928-3.84 0.96-0.736 1.92-1.44 2.912-2.176 1.28-0.928 2.528-1.888 3.84-2.848 0.16-0.096 0.256-0.192 0.416-0.32 0.608-0.448 1.184-0.864 1.824-1.312 1.472-1.056 3.008-2.080 4.48-3.104 0.128-0.096 0.256-0.192 0.384-0.256 0.576-0.416 1.184-0.832 1.76-1.216 5.248-3.552 10.56-7.008 16.032-10.304 0.96-0.576 1.888-1.12 2.848-1.664 6.816-4.032 13.792-7.84 20.896-11.424 0.256-0.128 0.48-0.224 0.736-0.352 10.784-5.376 21.824-10.24 33.184-14.496l11.936-103.232c0-22.88 18.528-41.44 41.44-41.44h138.080c22.88 0 41.44 18.528 41.44 41.44l11.936 103.264c0.576 0.224 1.152 0.48 1.728 0.672s1.152 0.48 1.728 0.672c3.84 1.504 7.68 3.040 11.456 4.64 0.736 0.32 1.472 0.64 2.208 0.96 3.36 1.472 6.72 2.976 10.048 4.544 0.32 0.16 0.64 0.32 0.928 0.48 0.032 0 0.064 0.032 0.096 0.032 0.352 0.16 0.736 0.32 1.088 0.512 1.312 0.64 2.592 1.28 3.904 1.92 2.752 1.376 5.472 2.784 8.192 4.224 2.048 1.088 4.128 2.144 6.176 3.296 1.024 0.576 2.048 1.216 3.104 1.792 0.352 0.192 0.704 0.416 1.024 0.608 0.192 0.096 0.352 0.16 0.544 0.288 0.288 0.16 0.576 0.384 0.896 0.544 4.704 2.72 9.344 5.568 13.92 8.512 0.352 0.224 0.672 0.448 0.992 0.64 0.704 0.48 1.44 0.928 2.144 1.376 3.872 2.528 7.68 5.184 11.456 7.904 0.384 0.256 0.736 0.544 1.12 0.8 4.256 3.072 8.448 6.24 12.544 9.536 0.544 0.448 1.12 0.864 1.664 1.312 0.928 0.768 1.888 1.504 2.816 2.24l95.36-41.28c19.808-11.456 45.152-4.64 56.576 15.168l69.056 119.584c11.424 19.808 4.64 45.152-15.168 56.576zM512 303.904c-79.584 0-144.096 64.512-144.096 144.096s64.512 144.096 144.096 144.096 144.096-64.544 144.096-144.096-64.544-144.096-144.096-144.096z" />
<glyph unicode="&#xe94d;" glyph-name="ic-status-comments" d="M409.6 601.6v102.4h409.6v-102.4h-409.6zM409.6 396.8v102.4h409.6v-102.4h-409.6zM256 588.8c-35.328 0-64 28.672-64 64s28.672 64 64 64c35.328 0 64-28.672 64-64s-28.672-64-64-64v0zM256 384c-35.328 0-64 28.672-64 64s28.672 64 64 64c35.328 0 64-28.672 64-64s-28.672-64-64-64v0zM921.6 960h-819.2c-56.48 0-102.4-45.888-102.4-102.4v-614.4c0-56.48 45.92-102.4 102.4-102.4h102.4v-204.8l273.056 204.8h443.744c56.48 0 102.4 45.92 102.4 102.4v614.4c0 56.512-45.92 102.4-102.4 102.4v0z" />
<glyph unicode="&#xe94e;" glyph-name="ic-status-volunteers" d="M354.882 393.15c97.858 0 177.441 79.583 177.441 177.441s-79.583 177.441-177.441 177.441c-97.858 0-177.441-79.583-177.441-177.441s79.583-177.441 177.441-177.441zM354.882 348.803c-208.922 0-354.882-109.437-354.882-266.161v-44.347h709.737v44.347c0 156.725-145.933 266.161-354.882 266.161zM754.11 552.212l-164.444 164.444 62.727 62.727 101.717-101.717 190.438 190.438 62.727-62.727z" />
<glyph unicode="&#xe951;" glyph-name="ic-twitter" d="M512-64c-282.784 0-512 229.216-512 512s229.216 512 512 512c282.784 0 512-229.216 512-512s-229.216-512-512-512zM512-2.56c248.832 0 450.56 201.728 450.56 450.56s-201.728 450.56-450.56 450.56c-248.832 0-450.56-201.728-450.56-450.56s201.728-450.56 450.56-450.56zM505.504 539.040c-2.944 43.616 0 0 0 0-2.944 43.616 22.784 83.456 63.488 98.912 14.976 5.504 40.384 6.176 56.96 1.376 6.496-2.048 18.88-8.928 27.68-15.104l15.936-11.328 17.568 5.824c9.76 3.104 22.784 8.256 28.64 11.68 5.536 3.104 10.432 4.8 10.432 3.776 0-5.824-12.032-25.76-22.144-36.768-13.664-15.456-9.76-16.832 17.92-6.528 16.608 5.824 16.928 5.824 13.664-0.672-1.952-3.424-12.032-15.456-22.784-26.432-18.24-18.88-19.2-20.96-19.2-36.768 0-24.384-11.072-75.232-22.144-103.040-20.512-52.224-64.448-106.144-108.416-133.28-61.856-38.112-144.224-47.744-213.568-25.408-23.104 7.552-62.816 26.784-62.816 30.24 0 1.024 12.032 2.4 26.688 2.752 30.592 0.672 61.216 9.632 87.264 25.408l17.568 10.976-20.192 7.2c-28.64 10.304-54.368 34.016-60.864 56.32-1.952 7.2-1.312 7.552 16.928 7.552l18.88 0.352-15.936 7.904c-18.88 9.952-36.128 26.784-44.608 43.968-6.176 12.352-13.984 43.616-11.712 46.016 0.64 1.024 7.488-1.024 15.296-3.776 22.464-8.576 25.408-6.528 12.384 7.904-24.416 26.112-31.904 64.928-20.192 101.664l5.536 16.48 21.472-22.336c43.936-44.992 95.712-71.776 154.976-79.68l16.288-2.048-0.992 16.832z" />
<glyph unicode="&#xe952;" glyph-name="ic-txt" d="M156.256 313.248h403.456v-100.896h-403.456v100.896zM156.256 514.976h706.080v-100.896h-706.080v100.896zM156.192 716.736h706.144v-100.864h-706.144v100.864zM1024.608-18.496h-1024.608v978.496h1024.608v-978.496zM98.432 79.936h827.584v781.632h-827.584z" />
<glyph unicode="&#xe953;" glyph-name="ic-up" d="M884.384 475.616l-84.8-84.8-293.6 293.6-293.6-293.6-84.8 84.8 378.4 378.4zM884.384 126.784l-84.8-84.8-293.6 293.6-293.6-293.6-84.8 84.8 378.4 378.4z" />
<glyph unicode="&#xe954;" glyph-name="ic-verification-phone-code" d="M654.208 159.232l-68.32 50.016v-68.576h-389.6v584.416h389.6v-114.688l97.408 132.96v79.136c0 53.824-43.648 97.408-97.408 97.408h-389.6c-53.76 0-97.408-43.648-97.408-97.408v-779.2c0-53.76 43.648-97.408 97.408-97.408h389.6c53.76 0 97.408 43.648 97.408 97.408v155.584l-29.088-39.648zM595.936 274.080l-242.080 181.6 73.056 97.408 147.456-110.656 255.392 320.608 95.2-75.872z" />
<glyph unicode="&#xe955;" glyph-name="ic-view-request" d="M500.622 812.089c-227.556 0-421.888-141.54-500.622-341.333 78.734-199.794 273.067-341.333 500.622-341.333s421.888 141.54 500.622 341.333c-78.734 199.794-273.067 341.333-500.622 341.333zM500.622 243.2c-125.611 0-227.556 101.945-227.556 227.556s101.945 227.556 227.556 227.556c125.611 0 227.556-101.945 227.556-227.556s-101.945-227.556-227.556-227.556zM500.622 607.289c-75.548 0-136.533-60.985-136.533-136.533s60.985-136.533 136.533-136.533c75.548 0 136.533 60.985 136.533 136.533s-60.985 136.533-136.533 136.533z" />
<glyph unicode="&#xe956;" glyph-name="ic-volunteering" d="M475.52-60.8c-25.6-0.064-50.272 8.736-69.952 25.216-34.016 28.352-69.248 56.864-105.472 85.312-91.392 72-181.12 137.472-268.064 197.024 69.408 187.488 218.688 55.456 297.472 0.544v589.344c0 21.728 17.568 39.392 39.392 39.392h39.392c21.728 0 39.392-17.632 39.392-39.392v-343.072h60.032v427.040c0 21.664 17.632 39.392 39.392 39.392h39.392c21.824 0 39.392-17.728 39.392-39.392v-427.040h54.592v377.824c0 21.824 17.568 39.392 39.392 39.392h39.392c21.728 0 39.392-17.568 39.392-39.392v-377.824h57.28v253.12c0 21.824 17.632 39.392 39.392 39.392h39.392c21.728 0 39.392-17.568 39.392-39.392v-586.496c0-8.032-0.544-16.384-1.568-25.056-14.016-113.504-117.472-194.88-231.776-195.2l-265.152-0.704z" />
<glyph unicode="&#xe957;" glyph-name="ic-website" d="M531.072 419.968c3.584 1.184 7.232 2.272 10.88 3.328-6.912 15.648-14.464 31.36-22.368 46.848-141.952-42.528-278.144-39.456-283.040-39.264-0.096-2.976-0.224-5.824-0.224-8.768 0-70.848 26.72-135.392 70.656-184.224-0.032 0.064-0.096 0.16-0.096 0.16s75.456 133.824 224.224 181.952zM496.736 512.576c-47.712 84.768-98.688 153.952-102.336 158.848-76.896-36.32-134.272-107.136-152.16-192.512 7.264-0.064 122.144-1.504 254.496 33.664zM694.080 628.96c-48.544 42.784-112.288 68.768-182.080 68.768-22.4 0-44.128-2.72-64.992-7.744 4.16-5.536 55.968-74.24 103.072-160.832 104.032 39.040 143.296 98.816 143.968 99.808zM445.984 689.728c-0.32-0.032-0.608-0.064-0.928-0.224 0.512 0.16 0.864 0.224 0.864 0.224h0.064zM342.56 204.768l0.064 0.096c-2.048 1.6-4.224 3.040-6.208 4.736 3.68-2.976 6.144-4.832 6.144-4.832zM571.296 488.096c6.4-13.152 12.576-26.528 18.336-39.968 2.016-4.832 4-9.568 5.92-14.272 94.72 11.936 188.032-8.16 192.032-8.96-0.64 65.376-24.032 125.344-62.688 172.32-0.544-0.736-44.736-64.64-153.6-109.088zM558.912 376.992c-162.72-56.736-215.808-171.040-216.32-172.128 46.752-36.512 105.472-58.464 169.376-58.464 38.176 0 74.528 7.776 107.648 21.824-4.096 24.096-20.096 108.512-58.912 209.344-0.576-0.224-1.184-0.416-1.792-0.608zM512 866.848c-245.632 0-444.768-199.168-444.768-444.768s199.104-444.736 444.768-444.736 444.768 199.104 444.768 444.736c0 245.6-199.168 444.768-444.768 444.768zM809.408 296.416c-8.064-19.168-18.112-37.6-29.76-54.816-11.552-17.12-24.8-33.152-39.424-47.776s-30.656-27.84-47.744-39.424c-17.248-11.648-35.744-21.664-54.848-29.76-19.52-8.224-39.904-14.528-60.64-18.816-21.28-4.384-43.136-6.592-65.024-6.592s-43.744 2.208-65.024 6.592c-20.736 4.256-41.152 10.592-60.64 18.816-19.136 8.096-37.632 18.144-54.88 29.76-17.056 11.584-33.152 24.832-47.744 39.424-14.624 14.624-27.872 30.656-39.424 47.776-11.648 17.216-21.664 35.68-29.76 54.816-8.224 19.52-14.56 39.904-18.848 60.672-4.32 21.28-6.528 43.104-6.528 64.992s2.208 43.744 6.528 64.992c4.256 20.768 10.592 41.184 18.848 60.672 8.096 19.168 18.144 37.632 29.76 54.88 11.552 17.12 24.8 33.12 39.424 47.776 14.592 14.592 30.656 27.808 47.744 39.36 17.248 11.68 35.712 21.696 54.88 29.792 19.456 8.256 39.904 14.56 60.64 18.816 21.28 4.32 43.136 6.56 65.024 6.56s43.744-2.208 65.024-6.56c20.736-4.224 41.12-10.56 60.64-18.816 19.136-8.096 37.6-18.144 54.848-29.792 17.056-11.584 33.12-24.8 47.744-39.36 14.624-14.656 27.872-30.656 39.424-47.776 11.68-17.216 21.696-35.712 29.76-54.88 8.256-19.456 14.592-39.904 18.816-60.672 4.384-21.248 6.592-43.104 6.592-64.992s-2.208-43.712-6.592-64.992c-4.224-20.768-10.528-41.152-18.816-60.672zM612.384 390.368c36.16-99.392 50.816-180.288 53.664-196.928 61.888 41.76 105.856 108.096 118.112 184.928-5.664 1.824-82.784 26.24-171.776 12z" />
<glyph unicode="&#xe958;" glyph-name="ic-xls" d="M796.512 212.928h-172.448l-117.632 166.368-123.584-166.368h-173.184l214.88 270.24-173.504 236.352h174.944l81.28-128.512 86.592 128.512h178.016l-181.888-236.352 206.56-270.24zM1024-17.984h-1024v977.984h1024v-977.984zM98.368 80.384h827.072v781.184h-827.072z" />
<glyph unicode="&#xe959;" glyph-name="import-employees" d="M481.888 236.608l343.776 343.776-85.184 85.184-198.368-198.368-0.064 492.8h-120.48l0.064-492.8-198.368 198.368-85.184-85.184zM844.416 175.392l1.056-118.912h-724v118.912h-120.48l1.184-118.912c0-66.368 53.984-120.48 120.48-120.48h722.816c66.496 0 120.48 54.080 120.48 120.48l-1.056 118.592-120.48 0.352z" />
<glyph unicode="&#xe95a;" glyph-name="instagram" d="M512 867.808c136.8 0 152.992-0.608 206.784-3.008 50.016-2.208 76.992-10.592 95.008-17.6 23.808-9.216 40.992-20.416 58.784-38.208 18.016-18.016 28.992-35.008 38.4-58.816 7.008-18.016 15.392-45.184 17.6-95.008 2.4-54.016 3.008-70.208 3.008-206.816s-0.608-152.992-3.008-206.816c-2.208-50.016-10.592-76.992-17.6-95.008-9.216-23.808-20.384-40.992-38.208-58.784-18.016-18.016-35.008-28.992-58.784-38.4-18.016-7.008-45.216-15.392-95.008-17.6-54.016-2.4-70.208-3.008-206.816-3.008s-152.992 0.608-206.816 3.008c-50.016 2.208-76.992 10.592-95.008 17.6-23.808 9.216-40.992 20.384-58.816 38.208-18.016 18.016-28.992 35.008-38.4 58.784-7.008 18.016-15.392 45.216-17.6 95.008-2.4 54.016-3.008 70.208-3.008 206.816s0.608 152.992 3.008 206.816c2.208 50.016 10.592 76.992 17.6 95.008 9.216 23.808 20.416 40.992 38.208 58.816 18.016 18.016 35.008 28.992 58.816 38.4 18.016 7.008 45.184 15.392 95.008 17.6 53.792 2.4 70.016 3.008 206.816 3.008zM512 960c-139.008 0-156.384-0.608-211.008-3.008-54.4-2.4-91.808-11.2-124.192-23.808-33.792-13.184-62.4-30.592-90.784-59.2-28.608-28.416-46.016-56.992-59.2-90.592-12.608-32.608-21.408-69.792-23.808-124.192-2.4-54.816-3.008-72.192-3.008-211.2s0.608-156.384 3.008-211.008c2.4-54.4 11.2-91.808 23.808-124.192 13.216-33.792 30.592-62.4 59.2-90.784 28.384-28.384 56.992-46.016 90.592-59.008 32.608-12.608 69.792-21.408 124.192-23.808 54.592-2.4 72-3.008 211.008-3.008s156.416 0.608 211.008 3.008c54.4 2.4 91.808 11.2 124.192 23.808 33.6 12.992 62.208 30.592 90.592 59.008s46.016 56.992 59.008 90.592c12.608 32.608 21.408 69.792 23.808 124.192 2.4 54.592 3.008 72 3.008 211.008s-0.608 156.384-3.008 211.008c-2.4 54.4-11.2 91.808-23.808 124.192-12.608 34.016-30.016 62.592-58.592 91.008-28.384 28.384-56.992 46.016-90.592 59.008-32.608 12.608-69.792 21.408-124.192 23.808-54.784 2.592-72.192 3.2-211.2 3.2v0zM512 711.008c-145.184 0-263.008-117.792-263.008-263.008s117.792-263.008 263.008-263.008 263.008 117.792 263.008 263.008c0 145.184-117.792 263.008-263.008 263.008zM512 277.408c-94.208 0-170.592 76.384-170.592 170.592s76.384 170.592 170.592 170.592c94.208 0 170.592-76.384 170.592-170.592s-76.384-170.592-170.592-170.592zM846.784 721.408c0-33.92-27.488-61.408-61.408-61.408s-61.408 27.488-61.408 61.408c0 33.92 27.488 61.408 61.408 61.408s61.408-27.488 61.408-61.408z" />
<glyph unicode="&#xe95b;" glyph-name="left-arrow" d="M439.15 886.856l-439.15-438.855 439.004-438.857 51.712 51.565-350.72 350.72h884.004v73.141h-884.004l350.867 350.867z" />
<glyph unicode="&#xe95c;" glyph-name="linkedin21" d="M384 576h177.12v-90.784h2.528c24.64 44.192 84.96 90.784 174.848 90.784 186.944 0 221.504-116.384 221.504-267.744v-308.256h-184.608v273.28c0 65.184-1.344 149.024-96.032 149.024-96.16 0-110.816-70.976-110.816-144.288v-278.016h-184.544v576zM64 576h192v-576h-192v576zM256 736c0-53.024-42.976-96-96-96s-96 42.976-96 96c0 53.024 42.976 96 96 96s96-42.976 96-96z" />
<glyph unicode="&#xe95d;" glyph-name="mail4" d="M512 960c-282.784 0-512-229.216-512-512s229.216-512 512-512 512 229.216 512 512-229.216 512-512 512zM256 704h512c9.152 0 18.016-1.952 26.144-5.664l-282.144-329.152-282.144 329.184c8.128 3.712 16.992 5.664 26.144 5.664zM192 256v384c0 1.344 0.064 2.688 0.128 4l187.648-218.944-185.6-185.6c-1.44 5.344-2.208 10.88-2.208 16.544zM768 192h-512c-5.664 0-11.2 0.768-16.544 2.208l182.112 182.112 90.432-105.504 90.432 105.504 182.112-182.112c-5.344-1.44-10.88-2.208-16.544-2.208zM832 256c0-5.664-0.768-11.2-2.208-16.544l-185.6 185.6 187.68 218.944c0.096-1.312 0.128-2.656 0.128-4v-384z" />
<glyph unicode="&#xe95e;" glyph-name="menu-mobile" d="M43.031 209.59h683.076c23.78 0 43.031-19.274 43.031-43.031s-19.274-43.031-43.031-43.031h-683.076c-23.757 0-43.031 19.274-43.031 43.031s19.274 43.031 43.031 43.031zM43.031 510.828h926.492c23.757 0 43.031-19.274 43.031-43.031s-19.274-43.031-43.031-43.031h-926.492c-23.757 0-43.031 19.274-43.031 43.031s19.274 43.031 43.031 43.031zM43.031 812.089h683.076c23.78 0 43.031-19.274 43.031-43.031s-19.274-43.031-43.031-43.031h-683.076c-23.757 0-43.031 19.274-43.031 43.031s19.274 43.031 43.031 43.031z" />
<glyph unicode="&#xe960;" glyph-name="pdf" d="M889.75 740.416l-213.334 213.334c-4 4-9.416 6.25-15.084 6.25h-448c-47.062 0-85.332-38.27-85.332-85.334v-853.334c0-47.062 38.27-85.332 85.334-85.332h597.334c47.062 0 85.332 38.27 85.332 85.334v704c0 5.666-2.25 11.082-6.25 15.082zM682.666 887.166l140.5-140.5h-97.834c-23.52 0-42.666 19.146-42.666 42.666v97.834zM853.334 21.334c0-23.52-19.146-42.666-42.666-42.666h-597.334c-23.52 0-42.666 19.146-42.666 42.666v853.332c0 23.52 19.146 42.666 42.666 42.666h426.666v-128c0-47.062 38.27-85.332 85.334-85.332h128v-682.666zM620.77 333.73c-19.75 15.542-38.52 31.52-51.020 44.020-16.25 16.25-30.73 32-43.312 47 19.626 60.646 28.23 91.916 28.23 108.584 0 70.812-25.584 85.334-64 85.334-29.188 0-64-15.166-64-87.376 0-31.834 17.438-70.48 52-115.396-8.458-25.812-18.396-55.584-29.562-89.146-5.376-16.104-11.208-31.020-17.376-44.812-5.020-2.23-9.896-4.5-14.604-6.854-16.958-8.48-33.062-16.104-48-23.188-68.126-32.25-113.126-53.584-113.126-95.708 0-30.584 33.23-49.52 64-49.52 39.666 0 99.562 52.98 143.312 142.23 45.416 17.916 101.876 31.188 146.438 39.5 35.708-27.458 75.146-53.73 94.25-53.73 52.896 0 64 30.584 64 56.23 0 50.438-57.626 50.438-85.334 50.438-8.604-0.002-31.686-2.544-61.896-7.606zM320 149.334c-12.188 0-20.438 5.75-21.334 6.854 0 15.126 45.104 36.5 88.73 57.166 2.77 1.312 5.584 2.626 8.438 3.98-32.042-46.46-63.73-68-75.834-68zM469.334 531.292c0 44.708 13.876 44.708 21.334 44.708 15.084 0 21.334 0 21.334-42.666 0-9-6-31.5-16.98-66.626-16.752 25.792-25.688 47.896-25.688 64.584zM485.688 302c1.334 3.708 2.626 7.458 3.876 11.25 7.916 23.75 15.042 45.084 21.396 64.292 8.854-9.75 18.396-19.73 28.626-29.958 4-4 13.916-13 27.126-24.27-26.296-5.73-54.274-12.834-81.024-21.314zM725.334 290.896c0-9.584 0-13.562-19.792-13.688-5.812 1.25-19.25 9.166-35.834 20.458 6.020 0.666 10.458 1 12.958 1 31.522 0 40.46-3.082 42.668-7.77z" />
<glyph unicode="&#xe961;" glyph-name="pinterest1" d="M512 891.584c-244.992 0-443.616-198.592-443.616-443.616 0-188 116.992-348.384 282.016-412.992-3.808 35.008-7.392 88.992 1.6 127.2 8 34.592 52 220.384 52 220.384s-13.184 26.592-13.184 65.792c0 61.6 35.808 107.808 80.192 107.808 37.792 0 56.192-28.384 56.192-62.4 0-38.016-24.192-95.008-36.8-147.616-10.592-44.192 22.016-80.192 65.6-80.192 78.784 0 139.392 83.2 139.392 203.2 0 106.208-76.384 180.416-185.184 180.416-126.208 0-200.192-94.592-200.192-192.608 0-38.208 14.592-79.008 32.992-101.216 3.616-4.384 4.192-8.192 3.008-12.8-3.392-14.016-10.816-44.192-12.384-50.4-2.016-8.192-6.4-9.792-14.816-6.016-55.392 25.792-90.016 106.784-90.016 171.808 0 140 101.6 268.384 292.992 268.384 153.792 0 273.408-109.6 273.408-256.192 0-152.8-96.384-276-230.208-276-44.992 0-87.2 23.392-101.6 51.008 0 0-22.208-84.608-27.616-105.408-10.016-38.592-36.992-86.784-55.2-116.192 41.6-12.8 85.6-19.808 131.392-19.808 244.992 0 443.616 198.592 443.616 443.616 0 245.184-198.592 443.808-443.616 443.808z" />
<glyph unicode="&#xe962;" glyph-name="right" d="M888.582 832.443l135.418-135.422-633.467-633.467-390.533 390.524 135.418 135.422 255.115-255.106 498.049 498.049z" />
<glyph unicode="&#xe963;" glyph-name="right-arrow" d="M584.855 9.142l439.143 438.858-438.999 438.858-51.714-51.572 350.715-350.715h-884v-73.144h883.998l-350.857-350.857z" />
<glyph unicode="&#xe964;" glyph-name="star-full" d="M488.84 158.871l-302.14-158.84 57.705 336.414-244.435 238.261 337.8 49.092 151.070 306.086 151.070-306.086 337.8-49.092-244.435-238.261 57.705-336.414z" />
<glyph unicode="&#xe965;" glyph-name="telegram" d="M512 960c-282.816 0-512-229.184-512-512s229.184-512 512-512 512 229.216 512 512-229.216 512-512 512zM763.616 608.992l-84-395.808c-5.792-28.192-22.784-34.784-46.4-21.792l-128 94.592-61.408-59.808c-7.2-7.008-12.8-12.8-25.6-12.8-16.608 0-13.792 6.208-19.392 22.016l-43.616 143.2-126.592 39.392c-27.392 8.384-27.584 27.2 6.208 40.608l493.184 190.4c22.4 10.208 44.192-5.408 35.616-40z" />
<glyph unicode="&#xe966;" glyph-name="twitter1" d="M1024 733.6c-37.6-16.8-78.208-28-120.608-32.992 43.392 26.016 76.608 67.2 92.384 116.192-40.608-24-85.6-41.6-133.408-51.008-38.4 40.8-92.992 66.208-153.408 66.208-116 0-210.016-94.016-210.016-210.016 0-16.384 1.792-32.384 5.408-47.808-174.592 8.8-329.408 92.416-432.992 219.584-18.016-31.008-28.384-67.2-28.384-105.6 0-72.8 36.992-137.184 93.408-174.816-34.4 0.992-66.784 10.592-95.2 26.208 0-0.8 0-1.792 0-2.592 0-101.792 72.416-186.816 168.608-205.984-17.6-4.8-36.192-7.392-55.392-7.392-13.6 0-26.592 1.408-39.584 3.808 26.816-83.392 104.416-144.192 196.192-146.016-72-56.384-162.4-90.016-260.992-90.016-16.992 0-33.6 0.992-50.208 3.008 93.216-59.808 203.584-94.4 322.208-94.4 386.4 0 597.792 320.192 597.792 597.792 0 9.184-0.192 18.208-0.608 27.2 40.992 29.408 76.608 66.4 104.8 108.608z" />
<glyph unicode="&#xe967;" glyph-name="up-arrow" d="M950.858 520.857l-438.858 439.143-438.858-439.001 51.572-51.714 350.715 350.715v-883.998h73.144v883.998l350.859-350.859z" />
<glyph unicode="&#xe968;" glyph-name="vimeo1" d="M1023.616 685.984c-4.608-99.616-74.208-236.192-208.8-409.408-139.2-180.8-256.992-271.392-353.408-271.392-59.616 0-110.208 55.008-151.392 165.216-27.616 100.992-55.008 202.016-82.592 303.008-30.592 110.208-63.392 165.184-98.592 165.184-7.584 0-34.4-16.192-80.416-48.192l-48.192 62.016c50.592 44.384 100.416 88.8 149.408 133.184 67.392 58.208 118.016 88.8 151.808 92 79.584 7.584 128.8-46.816 147.2-163.392 19.808-125.792 33.6-204 41.408-234.592 23.008-104.416 48.192-156.608 75.808-156.608 21.408 0 53.6 33.792 96.608 101.6 42.784 67.616 65.792 119.2 68.992 154.592 6.208 58.4-16.8 87.808-68.992 87.808-24.608 0-49.792-5.6-75.808-16.8 50.4 164.8 146.4 244.8 288.384 240.192 104.992-2.784 154.592-71.008 148.608-204.416z" />
<glyph unicode="&#xe96a;" glyph-name="youtube1" d="M1013.792 652.8c0 0-10.016 70.592-40.8 101.6-39.008 40.8-82.592 40.992-102.592 43.392-143.2 10.4-358.208 10.4-358.208 10.4h-0.384c0 0-215.008 0-358.208-10.4-20-2.4-63.584-2.592-102.592-43.392-30.816-31.008-40.608-101.6-40.608-101.6s-10.208-82.816-10.208-165.792v-77.6c0-82.784 10.208-165.792 10.208-165.792s10.016-70.592 40.608-101.6c39.008-40.8 90.208-39.392 112.992-43.808 82.016-7.808 348.192-10.208 348.192-10.208s215.2 0.384 358.4 10.592c20 2.4 63.616 2.592 102.592 43.392 30.784 31.008 40.8 101.6 40.8 101.6s10.208 82.784 10.208 165.792v77.6c-0.192 82.816-10.4 165.792-10.4 165.792zM406.208 315.2v287.808l276.608-144.416-276.608-143.392z" />
</font>
</defs>
</svg>
