<svg xmlns="http://www.w3.org/2000/svg" width="16" height="16" fill="none" viewBox="0 0 16 16">
  <path fill="#6C7679" fill-rule="evenodd" d="M9.017 1.477a.75.75 0 01-.014 1.06L3.744 7.661a3.304 3.304 0 00-.754 1.115 3.22 3.22 0 00.072 2.602c.192.403.465.766.805 1.066a3.651 3.651 0 002.489.8 3.628 3.628 0 002.39-1.066l.011-.01 4.007-3.906c.172-.167.304-.368.386-.588a1.564 1.564 0 00-.117-1.347c-.118-.2-.28-.376-.475-.513a1.821 1.821 0 00-2.264.25l-.012.012L8.164 8.14a1.255 1.255 0 00-.384.898c0 .334.136.657.384.899a.75.75 0 01-1.047 1.074 2.755 2.755 0 01-.837-1.973c0-.743.304-1.452.837-1.972l2.112-2.06a3.32 3.32 0 014.173-.433c.377.262.693.601.925.996a3.077 3.077 0 01.227 2.632c-.16.428-.414.815-.743 1.135l-4.002 3.9a5.128 5.128 0 01-3.374 1.507 5.152 5.152 0 01-3.546-1.161 4.82 4.82 0 01-1.182-1.561 4.726 4.726 0 01.99-5.435l5.259-5.123a.75.75 0 011.06.014z" clip-rule="evenodd"/>
</svg>
