<svg xmlns="http://www.w3.org/2000/svg" width="16" height="16" fill="none" viewBox="0 0 16 16">
  <path fill="#6C7679" fill-rule="evenodd" d="M8 2.5a5.5 5.5 0 1 0 0 11 5.5 5.5 0 0 0 0-11ZM1 8a7 7 0 1 1 14 0A7 7 0 0 1 1 8Z" clip-rule="evenodd"/>
  <path fill="#6C7679" fill-rule="evenodd" d="M8 4a.75.75 0 0 1 .75.75v6.5a.75.75 0 0 1-1.5 0v-6.5A.75.75 0 0 1 8 4Z" clip-rule="evenodd"/>
  <path fill="#6C7679" fill-rule="evenodd" d="M4 8a.75.75 0 0 1 .75-.75h6.5a.75.75 0 0 1 0 1.5h-6.5A.75.75 0 0 1 4 8Z" clip-rule="evenodd"/>
</svg>
