<svg xmlns="http://www.w3.org/2000/svg" width="16" height="16" fill="none" viewBox="0 0 16 16">
  <path fill="#6C7679" fill-rule="evenodd" d="M4.387 2.003a7.014 7.014 0 016.742-.266 6.998 6.998 0 013.756 4.988 6.973 6.973 0 01-1.736 5.995 7.002 7.002 0 01-5.842 2.221 7.012 7.012 0 01-2.725-.853l-2.592.873a.75.75 0 01-.936-.988l.948-2.384a6.977 6.977 0 012.385-9.586zm3.616.497a5.514 5.514 0 00-2.842.789 5.475 5.475 0 00-1.7 7.796.75.75 0 01.077.7l-.492 1.237 1.383-.466a.75.75 0 01.638.076 5.513 5.513 0 006.98-.929 5.483 5.483 0 001.363-4.706 5.48 5.48 0 00-2.951-3.917 5.514 5.514 0 00-2.456-.58z" clip-rule="evenodd"/>
</svg>
