<svg xmlns="http://www.w3.org/2000/svg" width="16" height="16" fill="none" viewBox="0 0 16 16">
  <path fill="#6C7679" fill-rule="evenodd" d="M13 1.75a.75.75 0 0 0-.75-.75H10.5c-1.183 0-2.343.282-3.28 1.22-.475.475-.837 1.127-1.079 1.776C5.897 4.65 5.75 5.364 5.75 6v6.524l-2.488-2.322a.75.75 0 0 0-1.024 1.096l3.75 3.5a.75.75 0 0 0 1.024 0l3.75-3.5a.75.75 0 1 0-1.024-1.096L7.25 12.524V6c0-.425.103-.96.296-1.48.196-.522.46-.965.734-1.24.563-.563 1.28-.78 2.22-.78h1.75a.75.75 0 0 0 .75-.75Z" clip-rule="evenodd"/>
</svg>
