<svg xmlns="http://www.w3.org/2000/svg" width="16" height="16" fill="none" viewBox="0 0 16 16">
  <path fill="#6C7679" d="M8 1a.75.75 0 0 1 .75.75V3h1.5a.75.75 0 0 1 0 1.5H8a1.57 1.57 0 0 0-1.076.418 1.317 1.317 0 0 0-.424.957c0 .35.147.696.424.957A1.57 1.57 0 0 0 8 7.25c.782 0 1.54.293 2.106.827.567.536.894 1.271.894 2.048 0 .777-.327 1.512-.894 2.048-.382.36-.85.61-1.356.736v1.341a.75.75 0 0 1-1.5 0V13h-1.5a.75.75 0 0 1 0-1.5H8c.411 0 .798-.155 1.076-.418.277-.261.424-.607.424-.957s-.147-.696-.424-.957A1.57 1.57 0 0 0 8 8.75a3.07 3.07 0 0 1-2.106-.827A2.817 2.817 0 0 1 5 5.875c0-.777.327-1.512.894-2.048.382-.36.85-.61 1.356-.736V1.75A.75.75 0 0 1 8 1Z"/>
</svg>
