<svg xmlns="http://www.w3.org/2000/svg" width="16" height="16" fill="none" viewBox="0 0 16 16">
  <path fill="#6C7679" d="M8 7a.75.75 0 0 1 .75.75v.545a.76.76 0 0 1-.002.055c.545.138 1.06.438 1.06.918a.603.603 0 0 1-.573.623c-.116 0-.28-.075-.467-.16-.243-.112-.524-.24-.783-.24-.252 0-.474.116-.474.388 0 .253.369.393.819.563.703.266 1.603.606 1.603 1.57a1.758 1.758 0 0 1-1.19 1.56.756.756 0 0 1 .007.109v.569a.75.75 0 0 1-1.5 0v-.57c0-.041.003-.082.01-.123-.64-.161-1.26-.523-1.26-.982a.657.657 0 0 1 .601-.62c.258 0 .448.107.647.22.22.124.45.255.796.255.427 0 .552-.134.552-.4 0-.248-.364-.386-.809-.554-.704-.266-1.612-.609-1.612-1.588a1.692 1.692 0 0 1 1.078-1.523.756.756 0 0 1-.003-.07V7.75A.75.75 0 0 1 8 7Z"/>
  <path fill="#6C7679" d="M4.75 1a.75.75 0 0 0-.643 1.136l1.04 1.733c-1.475.785-2.37 2.466-2.806 3.987-.269.943-.39 1.914-.356 2.753.033.789.212 1.649.735 2.171a.75.75 0 0 0 1.06-1.06c-.102-.103-.267-.462-.296-1.173-.028-.66.069-1.471.3-2.278.48-1.68 1.426-3.01 2.635-3.288a.75.75 0 0 0 .474-1.117L6.075 2.5h3.83l-.819 1.364a.75.75 0 0 0 .474 1.117c1.21.279 2.155 1.607 2.635 3.288.231.807.328 1.617.3 2.278-.03.711-.194 1.07-.296 1.173a.75.75 0 0 0 1.06 1.06c.523-.522.702-1.382.735-2.17.035-.84-.087-1.81-.356-2.754-.435-1.521-1.33-3.202-2.806-3.987l1.04-1.733A.75.75 0 0 0 11.23 1H4.75Z"/>
</svg>
