<svg xmlns="http://www.w3.org/2000/svg" width="16" height="16" fill="none" viewBox="0 0 16 16">
  <path fill="#6C7679" fill-rule="evenodd" d="M8 1a.75.75 0 01.75.75v6.19l1.386-1.387a.75.75 0 011.061 1.06L8.53 10.28a.75.75 0 01-1.06 0L4.803 7.614a.75.75 0 011.06-1.061L7.25 7.939V1.75A.75.75 0 018 1zm-6 9.333a.75.75 0 01.75.75v1.334a.583.583 0 00.583.583h9.334a.583.583 0 00.583-.583v-1.334a.75.75 0 011.5 0v1.334a2.083 2.083 0 01-2.083 2.083H3.333a2.083 2.083 0 01-2.083-2.083v-1.334a.75.75 0 01.75-.75z" clip-rule="evenodd"/>
</svg>
