<svg xmlns="http://www.w3.org/2000/svg" width="16" height="16" fill="none" viewBox="0 0 16 16">
  <path fill="#6C7679" fill-rule="evenodd" d="M10.664 2.548L3.376 9.85l-.642 2.915 2.922-.64 7.295-7.298a.239.239 0 00-.033-.324.698.698 0 01-.034-.033l-1.86-1.855a.767.767 0 01-.033-.034.243.243 0 00-.327-.034zM9.67 1.424a1.744 1.744 0 012.428.145l1.832 1.826a1.74 1.74 0 01.107 2.47l-7.474 7.477a.75.75 0 01-.37.202l-4.281.939a.75.75 0 01-.893-.894l.94-4.274a.75.75 0 01.201-.368l7.47-7.485a.747.747 0 01.04-.038z" clip-rule="evenodd"/>
</svg>
