<svg xmlns="http://www.w3.org/2000/svg" width="16" height="16" fill="none" viewBox="0 0 16 16">
  <path fill="#6C7679" fill-rule="evenodd" d="M1.002 2.692A.747.747 0 011.75 2h12.5a.749.749 0 01.75.75v10.5a.75.75 0 01-.75.75H1.75a.75.75 0 01-.75-.75V2.75c0-.02 0-.039.002-.058zM2.5 4.382V12.5h11V4.382l-4.09 3.51A1.985 1.985 0 018 8.5a1.985 1.985 0 01-1.41-.608L2.5 4.382zm9.724-.882H3.776l3.817 3.275a.748.748 0 01.053.051A.495.495 0 008 7c.1 0 .228-.043.354-.174a.748.748 0 01.053-.05L12.224 3.5z" clip-rule="evenodd"/>
</svg>
