<svg xmlns="http://www.w3.org/2000/svg" width="16" height="16" fill="none" viewBox="0 0 16 16">
  <path fill="#6C7679" fill-rule="evenodd" d="M14.771 1.21A.75.75 0 0 0 14.22 1h-.007l-.015.002-.057.003a21.048 21.048 0 0 0-.957.08 23.94 23.94 0 0 0-2.448.39c-1.867.4-4.226 1.163-5.723 2.653a6.41 6.41 0 0 0-1.948 3.757c-.161 1.133-.232 2.496.275 3.715l-2.12 2.12a.75.75 0 1 0 1.061 1.06l2.116-2.115c1.22.534 2.714.644 3.92.472a6.41 6.41 0 0 0 3.757-1.948c1.5-1.507 2.208-3.932 2.557-5.846A24.172 24.172 0 0 0 15 1.837v-.081a.75.75 0 0 0-.229-.545ZM5.568 11.494a6.361 6.361 0 0 0 2.536.159 4.91 4.91 0 0 0 2.884-1.499l.008-.008.008-.009c1.16-1.16 1.809-3.188 2.15-5.062a22.633 22.633 0 0 0 .31-2.51l-.121.012c-.59.064-1.402.175-2.293.366-1.821.39-3.814 1.084-4.985 2.255a4.91 4.91 0 0 0-1.515 2.9c-.119.827-.154 1.614-.013 2.306L8.72 6.22a.75.75 0 0 1 1.06 1.06l-4.212 4.213Z" clip-rule="evenodd"/>
</svg>
