<svg xmlns="http://www.w3.org/2000/svg" width="16" height="16" fill="none" viewBox="0 0 16 16">
  <path fill="#6C7679" d="M5.75 8.25a.75.75 0 000 1.5h4a.75.75 0 000-1.5h-4z"/>
  <path fill="#6C7679" fill-rule="evenodd" d="M6.849 1.385A2.179 2.179 0 005.609 1H3.14c-.558 0-1.098.212-1.502.6A2.057 2.057 0 001 3.082v9.584c0 .562.233 1.095.637 1.483.404.388.944.6 1.502.6h9.722c.558 0 1.098-.212 1.502-.6.404-.388.637-.92.637-1.483V5.083c0-.562-.233-1.095-.637-1.484A2.169 2.169 0 0012.86 3H7.84l-.203-.584a2.088 2.088 0 00-.787-1.031zM5.609 2.5c.142 0 .277.043.386.118a.59.59 0 01.224.29l.378 1.088a.75.75 0 00.709.504h5.555c.18 0 .345.069.463.182a.557.557 0 01.176.401v7.584c0 .144-.06.29-.176.401a.669.669 0 01-.463.182H3.14a.669.669 0 01-.463-.182.557.557 0 01-.176-.401V3.083c0-.144.06-.29.176-.401A.669.669 0 013.14 2.5h2.47z" clip-rule="evenodd"/>
</svg>
