<svg xmlns="http://www.w3.org/2000/svg" width="16" height="16" fill="none" viewBox="0 0 16 16">
  <path fill="#6C7679" fill-rule="evenodd" d="M3.743 3.752a2.43 2.43 0 00-.91.899c-.22.38-.336.814-.333 1.256v.006a2.495 2.495 0 00.911 1.93l4.586 4.545 4.592-4.545a.73.73 0 01.041-.038 2.495 2.495 0 00.87-1.893v-.005a2.466 2.466 0 00-.333-1.256 2.431 2.431 0 00-.91-.899 2.328 2.328 0 00-1.59-.187 2.35 2.35 0 00-1.35.899.75.75 0 01-.039.048l-.711.82a.75.75 0 01-1.135 0l-.711-.826a.744.744 0 01-.037-.046 2.35 2.35 0 00-1.35-.897 2.327 2.327 0 00-1.591.19zM15 5.914a3.994 3.994 0 01-1.375 3.014L8.88 13.626a1.23 1.23 0 01-1.369.273 1.23 1.23 0 01-.395-.273l-4.74-4.698A3.995 3.995 0 011 5.915a3.967 3.967 0 01.535-2.018 3.93 3.93 0 011.51-1.473 3.828 3.828 0 012.634-.32 3.85 3.85 0 012.195 1.444l.126.147.124-.143a3.85 3.85 0 012.193-1.446 3.828 3.828 0 012.657.33 3.93 3.93 0 011.489 1.461c.355.612.54 1.309.536 2.017z" clip-rule="evenodd"/>
</svg>
