<svg xmlns="http://www.w3.org/2000/svg" width="16" height="16" fill="none" viewBox="0 0 16 16">
  <path fill="#6C7679" d="M8 4.39l.796-.938a3.469 3.469 0 011.995-1.355c.8-.194 1.64-.09 2.373.292.56.318 1.026.785 1.35 1.353.322.567.49 1.214.486 1.872 0 .536-.113 1.066-.332 1.552-.22.487-.54.918-.937 1.264l-5.345 5.398a.537.537 0 01-.39.172.524.524 0 01-.388-.172L2.269 8.43a3.672 3.672 0 01-.937-1.264A3.773 3.773 0 011 5.614a3.734 3.734 0 01.487-1.872 3.598 3.598 0 011.349-1.353 3.385 3.385 0 012.372-.294c.8.194 1.507.673 1.996 1.353L8 4.39z"/>
</svg>
