<svg xmlns="http://www.w3.org/2000/svg" width="16" height="16" fill="none" viewBox="0 0 16 16">
  <path fill="#6C7679" d="M2.65 2.5a.13.13 0 00-.094.044.213.213 0 00-.056.147V9.75a.75.75 0 01-1.5 0V2.69c0-.437.166-.863.471-1.183A1.63 1.63 0 012.65 1h8.1a.75.75 0 010 1.5h-8.1z"/>
  <path fill="#6C7679" fill-rule="evenodd" d="M4 4.75A.75.75 0 014.75 4h9.5a.75.75 0 01.75.75v8.5a.75.75 0 01-.75.75h-9.5a.75.75 0 01-.75-.75v-8.5zm2.821 7.75h5.365L9.72 10.085a.27.27 0 00-.092-.059.377.377 0 00-.28 0 .272.272 0 00-.092.059l-.005.005-2.43 2.41zm6.679-.813l-2.719-2.661a1.77 1.77 0 00-.593-.391 1.877 1.877 0 00-1.4 0 1.77 1.77 0 00-.595.393L5.5 11.698V5.5h8v6.187z" clip-rule="evenodd"/>
</svg>
