<svg xmlns="http://www.w3.org/2000/svg" width="16" height="16" fill="none" viewBox="0 0 16 16">
  <path fill="#6C7679" fill-rule="evenodd" d="M7.971 2.667h.058c.792 0 1.427 0 1.94.042.529.043.986.133 1.408.348a3.583 3.583 0 0 1 1.566 1.566c.215.422.305.88.348 1.407.042.514.042 1.149.042 1.941v.058c0 .792 0 1.427-.042 1.941-.043.528-.133.985-.348 1.407a3.583 3.583 0 0 1-1.566 1.566c-.422.215-.88.305-1.407.348-.514.042-1.149.042-1.941.042H7.97c-.792 0-1.427 0-1.941-.042-.528-.043-.985-.133-1.407-.348a3.583 3.583 0 0 1-1.566-1.566c-.215-.422-.305-.88-.348-1.407-.042-.514-.042-1.149-.042-1.941V7.97c0-.792 0-1.427.042-1.94.043-.529.133-.986.348-1.408a3.583 3.583 0 0 1 1.566-1.566c.422-.215.88-.305 1.407-.348.514-.042 1.149-.042 1.941-.042ZM6.14 4.037c-.446.037-.708.105-.91.208a2.25 2.25 0 0 0-.984.984c-.103.202-.171.465-.208.91C4 6.592 4 7.172 4 8c0 .828 0 1.408.037 1.861.037.445.105.708.208.91.216.424.56.768.983.984.203.103.465.171.91.207C6.593 12 7.173 12 8 12c.828 0 1.408 0 1.861-.037.445-.037.708-.105.91-.208a2.25 2.25 0 0 0 .984-.984c.103-.202.171-.465.207-.91C12 9.408 12 8.828 12 8c0-.828 0-1.408-.038-1.861-.036-.445-.104-.708-.207-.91a2.25 2.25 0 0 0-.984-.984c-.202-.103-.465-.171-.91-.207C9.408 4 8.828 4 8 4c-.828 0-1.409 0-1.861.038Z" clip-rule="evenodd"/>
  <path fill="#6C7679" fill-rule="evenodd" d="M8 6.5a1.5 1.5 0 1 0 0 3 1.5 1.5 0 0 0 0-3ZM5.5 8a2.5 2.5 0 1 1 5 0 2.5 2.5 0 0 1-5 0Z" clip-rule="evenodd"/>
  <path fill="#6C7679" d="M11 5.333a.667.667 0 1 1-1.333 0 .667.667 0 0 1 1.333 0Z"/>
</svg>
