<svg xmlns="http://www.w3.org/2000/svg" width="16" height="16" fill="none" viewBox="0 0 16 16">
  <path fill="#6C7679" fill-rule="evenodd" d="M8 .995a5.06 5.06 0 013.53 1.435A4.85 4.85 0 0113 5.92c0 3.71-4.25 8.62-4.44 8.82a.73.73 0 01-1.12 0C7.25 14.54 3 9.63 3 5.92a4.81 4.81 0 011.47-3.49A5.06 5.06 0 018 .995zM4.5 5.92c0 2.42 2.38 5.73 3.5 7.15 1.12-1.42 3.5-4.73 3.5-7.15a3.34 3.34 0 00-1-2.41 3.55 3.55 0 00-5 0 3.34 3.34 0 00-1 2.41zm2.656-.949A1.33 1.33 0 118.842 7.03 1.33 1.33 0 017.156 4.97z" clip-rule="evenodd"/>
</svg>
