<svg xmlns="http://www.w3.org/2000/svg" width="16" height="16" fill="none" viewBox="0 0 16 16">
  <path fill="#6C7679" fill-rule="evenodd" d="M1.86 7.61c.39-.39.92-.61 1.473-.61H6.25a.75.75 0 0 1 .75.75V9h2V7.75A.75.75 0 0 1 9.75 7h2.917a2.083 2.083 0 0 1 2.083 2.083V13c0 .605-.261 1.041-.61 1.39a2.08 2.08 0 0 1-1.473.61H3.333a2.083 2.083 0 0 1-1.473-.61c-.349-.349-.61-.785-.61-1.39V9.083c0-.552.22-1.082.61-1.473Zm1.473.89a.583.583 0 0 0-.583.583V13c0 .103.02.179.17.33a.59.59 0 0 0 .413.17h9.334a.583.583 0 0 0 .412-.17c.151-.151.171-.227.171-.33V9.083a.583.583 0 0 0-.583-.583H10.5v1.25a.75.75 0 0 1-.75.75h-3.5a.75.75 0 0 1-.75-.75V8.5H3.333ZM3 1.75A.75.75 0 0 1 3.75 1h8.5a.75.75 0 1 1 0 1.5h-8.5A.75.75 0 0 1 3 1.75Zm0 3A.75.75 0 0 1 3.75 4h8.5a.75.75 0 1 1 0 1.5h-8.5A.75.75 0 0 1 3 4.75Z" clip-rule="evenodd"/>
</svg>
