<svg xmlns="http://www.w3.org/2000/svg" width="16" height="16" fill="none" viewBox="0 0 16 16">
  <path fill="#6C7679" d="M5.23 3.29a1.69 1.69 0 0 1 .63-.618 1.632 1.632 0 0 1 2.041.489.746.746 0 0 0 .037.046l.546.628a.75.75 0 0 0 1.13.001l.547-.625a.753.753 0 0 0 .039-.048 1.632 1.632 0 0 1 2.04-.49 1.683 1.683 0 0 1 .86 1.48v.005a1.703 1.703 0 0 1-.604 1.303.779.779 0 0 0-.047.043L10.053 7.9a.75.75 0 1 0 1.06 1.06l2.376-2.375A3.204 3.204 0 0 0 14.6 4.16a3.184 3.184 0 0 0-1.669-2.82 3.132 3.132 0 0 0-3.88.856 3.132 3.132 0 0 0-3.904-.843A3.183 3.183 0 0 0 3.5 4.16a3.203 3.203 0 0 0 1.137 2.447.75.75 0 1 0 .967-1.146A1.703 1.703 0 0 1 5 4.158v-.006a1.683 1.683 0 0 1 .23-.863ZM1 8.75A.75.75 0 0 1 1.75 8h2.917a3.417 3.417 0 0 1 3.39 3h.61c.906 0 1.775.36 2.416 1 .598.6 1 1.291 1 2.25a.75.75 0 0 1-.75.75H1.75a.75.75 0 0 1 0-1.5h8.63a2.393 2.393 0 0 0-.358-.439 1.917 1.917 0 0 0-1.355-.561H4.75a.75.75 0 0 1 0-1.5h1.787a1.916 1.916 0 0 0-1.87-1.5H1.75A.75.75 0 0 1 1 8.75Z"/>
</svg>
