<svg xmlns="http://www.w3.org/2000/svg" width="16" height="16" fill="none" viewBox="0 0 16 16">
  <path fill="#6C7679" fill-rule="evenodd" d="M3.5 2.508a.48.48 0 0 1 .007-.008h6.645L12.5 5.275V13h-.75a.75.75 0 0 0 0 1.5h1c.199 0 .39-.042.572-.139.164-.087.283-.2.358-.276.254-.254.3-.572.314-.719.011-.124.008-.281.006-.343V5a.75.75 0 0 0-.178-.484l-2.75-3.25A.75.75 0 0 0 10.5 1h-7c-.343 0-.743.128-1.03.415-.145.144-.47.503-.47 1.002v4.832a.75.75 0 0 0 1.5.001V2.508Zm.623 7.65a.75.75 0 0 1 .001 1.061l-.624.626v.007l1.152 1.156h.007l.626-.625a.75.75 0 1 1 1.06 1.06l-.631.632a1.51 1.51 0 0 1-2.116 0l-1.165-1.168a1.509 1.509 0 0 1 0-2.116l.63-.631a.75.75 0 0 1 1.06-.002Z" clip-rule="evenodd"/>
  <path fill="#6C7679" fill-rule="evenodd" d="m8.555 6.785 1.168 1.169c.58.58.58 1.535 0 2.115l-.632.63a.75.75 0 1 1-1.06-1.061l.627-.625V9.01l-1.16-1.16h-.003l-.628.626a.75.75 0 0 1-1.059-1.062l.632-.63a1.504 1.504 0 0 1 2.115.001ZM6.78 9.72a.75.75 0 0 1 0 1.06l-.5.5a.75.75 0 0 1-1.06-1.06l.5-.5a.75.75 0 0 1 1.06 0Z" clip-rule="evenodd"/>
</svg>
