<svg xmlns="http://www.w3.org/2000/svg" width="16" height="16" fill="none" viewBox="0 0 16 16">
  <path fill="#6C7679" d="M14.92 5a1.609 1.609 0 0 0-.35-.55l-3.06-3.03A1.39 1.39 0 0 0 10.32 1a1.52 1.52 0 0 0-.62.21 1.44 1.44 0 0 0-.46.46L7.36 4.62l-3.77.75a1.45 1.45 0 0 0-1.118 1.015 1.49 1.49 0 0 0-.022.785 1.5 1.5 0 0 0 .39.68L5 10l-3.78 3.72a.75.75 0 0 0 1.06 1.06L6 11l2.12 2.12c.19.186.424.32.68.39.123.015.247.015.37 0a1.47 1.47 0 0 0 1.09-.48c.175-.2.295-.44.35-.7l.75-3.78 2.94-1.86a1.59 1.59 0 0 0 .46-.47 1.52 1.52 0 0 0 .24-.54c.028-.23 0-.463-.08-.68Zm-4.61 2.54A.74.74 0 0 0 10 8l-.79 4.1-2.62-2.59v-.06h-.06L3.9 6.84 8 6a.77.77 0 0 0 .49-.33l2-3.2 3.06 3-3.24 2.07Z"/>
</svg>
