<svg xmlns="http://www.w3.org/2000/svg" width="16" height="16" fill="none" viewBox="0 0 16 16">
  <path fill="#6C7679" fill-rule="evenodd" d="M7.825 2.283A.75.75 0 006.77 1.217L3.962 3.995a.75.75 0 00.002 1.068L6.77 7.839a.75.75 0 101.055-1.067l-1.51-1.494H8c.826 0 1.632.242 2.317.695a4.123 4.123 0 011.532 1.845c.314.75.396 1.576.236 2.371a4.094 4.094 0 01-1.137 2.104 4.183 4.183 0 01-2.134 1.128c-.81.159-1.649.077-2.41-.235a4.154 4.154 0 01-1.87-1.516 4.073 4.073 0 01-.699-2.281.75.75 0 00-1.5 0c0 1.112.333 2.197.957 3.12a5.653 5.653 0 002.543 2.065 5.715 5.715 0 003.269.319 5.682 5.682 0 002.899-1.534 5.595 5.595 0 001.553-2.874c.219-1.09.106-2.22-.323-3.246a5.623 5.623 0 00-2.089-2.518A5.704 5.704 0 008 3.778H6.314l1.511-1.495z" clip-rule="evenodd"/>
</svg>
