<svg xmlns="http://www.w3.org/2000/svg" width="16" height="16" fill="none" viewBox="0 0 16 16">
  <path fill="#6C7679" fill-rule="evenodd" d="M8.169 1.223a.75.75 0 011.06-.006l2.81 2.778a.75.75 0 010 1.066l-2.81 2.778a.75.75 0 11-1.054-1.067l1.51-1.494H8c-.826 0-1.632.242-2.317.695A4.123 4.123 0 004.15 7.818a4.062 4.062 0 00-.236 2.371c.16.796.555 1.528 1.137 2.104a4.183 4.183 0 002.134 1.128c.81.159 1.648.077 2.41-.235a4.153 4.153 0 001.87-1.516c.456-.676.699-1.47.699-2.281a.75.75 0 111.5 0 5.573 5.573 0 01-.957 3.12 5.654 5.654 0 01-2.543 2.065 5.717 5.717 0 01-3.269.319 5.682 5.682 0 01-2.899-1.534 5.594 5.594 0 01-1.553-2.874 5.562 5.562 0 01.323-3.246A5.623 5.623 0 014.856 4.72 5.704 5.704 0 018 3.778h1.686L8.175 2.283a.75.75 0 01-.006-1.06z" clip-rule="evenodd"/>
</svg>
