<svg xmlns="http://www.w3.org/2000/svg" width="16" height="16" fill="none" viewBox="0 0 16 16">
  <path fill="#6C7679" fill-rule="evenodd" d="M13.59 1.049a1.831 1.831 0 00-1 .045L2.248 4.539l-.003.002a1.832 1.832 0 00-.706 3.031l.012.011L3.774 9.71v3.846a.75.75 0 001.194.604l1.818-1.336 1.64 1.64a1.833 1.833 0 003.032-.706l.001-.004 3.447-10.344a1.83 1.83 0 00-1.316-2.36zm-2.297 2.058L2.725 5.961a.332.332 0 00-.132.545l1.979 1.89 6.721-5.289zM5.274 9.752v2.32l1.143-.84a.75.75 0 01.975.075l2.095 2.095a.335.335 0 00.31.09.332.332 0 00.24-.216v-.001l3.284-9.855-8.047 6.332z" clip-rule="evenodd"/>
</svg>
