<svg xmlns="http://www.w3.org/2000/svg" width="16" height="16" fill="none" viewBox="0 0 16 16">
  <path fill="#6C7679" d="M8.395 15.002h-.78a1.66 1.66 0 01-1-.3 1.63 1.63 0 01-.62-.79l-.32-.83-.94-.54-.89.13a1.59 1.59 0 01-1-.15 1.62 1.62 0 01-.74-.68l-.4-.67a1.75 1.75 0 01-.24-1 1.7 1.7 0 01.38-.94l.55-.7v-1.07l-.55-.7a1.7 1.7 0 01-.38-.94 1.78 1.78 0 01.23-1l.39-.68a1.73 1.73 0 01.74-.68 1.65 1.65 0 011-.15l.88.13 1-.55.29-.8a1.74 1.74 0 01.64-.8 1.45 1.45 0 011-.29h.76a1.63 1.63 0 011 .3c.29.19.515.467.64.79l.32.83.94.54.88-.13a1.64 1.64 0 011 .15c.31.146.568.383.74.68l.39.68c.173.304.253.652.23 1a1.7 1.7 0 01-.38.94l-.55.7v1.06l.55.7a1.7 1.7 0 01.38.94 1.78 1.78 0 01-.23 1l-.39.68a1.67 1.67 0 01-.74.68 1.7 1.7 0 01-1 .16l-.89-.14-.94.54-.32.83a1.72 1.72 0 01-1.63 1.07zm-3.5-4a.7.7 0 01.38.1l1.39.81a.74.74 0 01.33.37l.42 1.08a.21.21 0 00.2.13h.78a.19.19 0 00.12 0 .2.2 0 00.08-.1l.4-1.1a.72.72 0 01.32-.37l1.39-.81a.76.76 0 01.49-.09l1.15.17a.17.17 0 00.12 0 .24.24 0 00.09-.08l.39-.68a.27.27 0 000-.12.21.21 0 00-.05-.12l-.72-.9a.76.76 0 01-.16-.46v-1.64a.76.76 0 01.16-.46l.72-.9a.21.21 0 00.1-.12.27.27 0 000-.12l-.39-.68a.24.24 0 00-.09-.08.19.19 0 00-.13 0l-1.17.17a.83.83 0 01-.49-.09l-1.39-.83a.72.72 0 01-.34-.37l-.4-1.08a.23.23 0 00-.08-.09.17.17 0 00-.12 0h-.78-.13a.2.2 0 00-.08.1l-.41 1.07a.69.69 0 01-.32.37l-1.41.81a.72.72 0 01-.49.11l-1.14-.19a.19.19 0 00-.13 0 .24.24 0 00-.09.08l-.42.7a.27.27 0 000 .12.21.21 0 000 .12l.72.9a.76.76 0 01.16.46v1.62a.76.76 0 01-.16.46l-.72.9a.21.21 0 000 .12.27.27 0 000 .12l.4.67.09.09a.32.32 0 00.13 0l1.17-.17h.11zm3.1-.51a2.649 2.649 0 01-1-.19 2.49 2.49 0 01-1.11-.92 2.45 2.45 0 01.31-3.14 2.49 2.49 0 014.2 2.25 2.48 2.48 0 01-2 1.95 2.6 2.6 0 01-.4.05zm0-3.49a1.05 1.05 0 00-.71.29 1 1 0 00-.12 1.26.94.94 0 00.45.36 1 1 0 00.58.09 1.1 1.1 0 00.51-.27 1 1 0 00.29-.54.93.93 0 00-.06-.57 1 1 0 00-.36-.44 1 1 0 00-.58-.18z"/>
</svg>
