<svg xmlns="http://www.w3.org/2000/svg" width="16" height="16" fill="none" viewBox="0 0 16 16">
  <path fill="#6C7679" fill-rule="evenodd" d="M10.163 1.83a2.833 2.833 0 11-.105 3.896L6.613 7.449a2.833 2.833 0 010 1.101l3.445 1.724a2.833 2.833 0 11-.671 1.341L5.942 9.892a2.833 2.833 0 110-3.785l3.445-1.723a2.833 2.833 0 01.776-2.554zm-5.11 6.707a.756.756 0 00-.057.116 1.333 1.333 0 11.007-1.293.758.758 0 00.044.088 1.36 1.36 0 01.12.552 1.333 1.333 0 01-.113.537zm5.9 3.078a1.334 1.334 0 10.044-.088.822.822 0 01-.044.088zm.27-6.839a1.334 1.334 0 01-.218-.288.751.751 0 00-.06-.12 1.334 1.334 0 11.279.408z" clip-rule="evenodd"/>
</svg>
