<svg xmlns="http://www.w3.org/2000/svg" width="16" height="16" fill="none" viewBox="0 0 16 16">
  <path fill="#6C7679" fill-rule="evenodd" d="M8.701 2.062a.75.75 0 01.81.14l5.25 4.9a.75.75 0 010 1.096l-5.25 4.9a.75.75 0 01-1.26-.548V10.5h-.323a4.78 4.78 0 00-3.075 1.122l-2.62 2.202a.75.75 0 01-1.188-.829l1.448-4.013A6.345 6.345 0 014.8 5.952a6.276 6.276 0 013.451-1.15V2.75a.75.75 0 01.451-.688zM8.417 6.3c-.984 0-1.946.306-2.753.877a4.845 4.845 0 00-1.76 2.314l-.502 1.391.486-.408A6.28 6.28 0 017.928 9H9a.75.75 0 01.75.75v1.074l3.4-3.174-3.4-3.174V5.55A.75.75 0 019 6.3h-.583z" clip-rule="evenodd"/>
</svg>
