<svg xmlns="http://www.w3.org/2000/svg" width="16" height="16" fill="none" viewBox="0 0 16 16">
  <path fill="#6C7679" d="M7.483 1.207a.75.75 0 011.034 0l2.625 2.5a.75.75 0 11-1.034 1.086L8.75 3.5V10a.75.75 0 01-1.5 0V3.5L5.892 4.793a.75.75 0 11-1.034-1.086l2.625-2.5z"/>
  <path fill="#6C7679" d="M2.75 7.25A.75.75 0 013.5 8v5c0 .12.05.244.152.34.103.099.25.16.41.16h7.875c.161 0 .308-.061.411-.16A.47.47 0 0012.5 13V8A.75.75 0 0114 8v5a1.97 1.97 0 01-.617 1.427c-.39.37-.91.573-1.445.573H4.061a2.097 2.097 0 01-1.445-.573A1.97 1.97 0 012 13V8a.75.75 0 01.75-.75z"/>
</svg>
