<svg xmlns="http://www.w3.org/2000/svg" width="16" height="16" fill="none" viewBox="0 0 16 16">
  <path fill="#6C7679" d="M5.685 8.943a.75.75 0 00-1.37.613c.324.724.84 1.341 1.492 1.776A3.95 3.95 0 008 12c.78 0 1.54-.233 2.193-.668a4.182 4.182 0 001.492-1.776.75.75 0 10-1.37-.613 2.684 2.684 0 01-.954 1.14A2.45 2.45 0 018 10.5a2.45 2.45 0 01-1.36-.416 2.684 2.684 0 01-.955-1.14zM5 6a1 1 0 102 0 1 1 0 00-2 0zM9.293 6.707a1 1 0 111.414-1.414 1 1 0 01-1.414 1.414z"/>
  <path fill="#6C7679" fill-rule="evenodd" d="M8 1a7 7 0 100 14A7 7 0 008 1zM4.11 4.11a5.5 5.5 0 117.78 7.78 5.5 5.5 0 01-7.78-7.78z" clip-rule="evenodd"/>
</svg>
