<svg xmlns="http://www.w3.org/2000/svg" width="16" height="16" fill="none" viewBox="0 0 16 16">
  <path fill="#6C7679" d="M4.5 15h-.12a2 2 0 01-1-.36 1.85 1.85 0 01-.74-1.88l.58-2.85-1.77-2.06A1.83 1.83 0 011 7a1.77 1.77 0 01.1-1 1.83 1.83 0 01.6-.8 1.88 1.88 0 01.92-.38l2.08-.26 1.7-2.69a1.82 1.82 0 01.68-.64 1.93 1.93 0 011.81 0c.282.15.52.37.69.64l1.68 2.65 2.08.26c.336.04.654.17.92.38A1.86 1.86 0 0115 7a1.76 1.76 0 01-.43.9l-1.81 2.01.58 2.85c.071.351.04.716-.09 1.05a1.77 1.77 0 01-.65.83 1.79 1.79 0 01-1 .35 1.85 1.85 0 01-1-.22L8 13.34l-2.59 1.43a2 2 0 01-.91.23zM7.67 2.68L5.8 5.62a.75.75 0 01-.54.38l-2.43.3a.46.46 0 00-.19.08.48.48 0 00-.12.16.31.31 0 000 .19.3.3 0 00.08.17l2 2.34a.71.71 0 01.17.64l-.65 3.21a.34.34 0 000 .2.33.33 0 00.12.16.37.37 0 00.21.08.44.44 0 00.22-.05l2.95-1.62a.76.76 0 01.72 0l3 1.62a.41.41 0 00.21.05.48.48 0 00.21-.07.33.33 0 00.12-.17.27.27 0 000-.2l-.65-3.21a.74.74 0 01.17-.64l2-2.34a.3.3 0 00.08-.18.31.31 0 000-.19.61.61 0 00-.12-.16.44.44 0 00-.19-.07L10.73 6a.77.77 0 01-.54-.35L8.32 2.68a.29.29 0 00-.14-.13.4.4 0 00-.37 0 .35.35 0 00-.14.13z"/>
</svg>
