<svg xmlns="http://www.w3.org/2000/svg" width="16" height="16" fill="none" viewBox="0 0 16 16">
  <path fill="#6C7679" d="M7.616 1.261c1.334-.087 2.762.343 3.741.873a.75.75 0 01-.714 1.32c-.791-.429-1.94-.76-2.929-.696-.486.032-.893.157-1.203.37-.297.207-.551.526-.695 1.042-.078.28-.087.579-.026.864.056.266.169.507.325.706A9.665 9.665 0 008.073 7H14a.75.75 0 010 1.5H2A.75.75 0 012 7h3.286a11.439 11.439 0 01-.189-.155.75.75 0 01-.09-.09 3.213 3.213 0 01-.685-1.41A3.332 3.332 0 014.37 3.77v-.002c.233-.833.685-1.456 1.288-1.873.592-.41 1.283-.59 1.958-.634zM11.408 9.327a.75.75 0 011.004.343c.34.69.427 1.477.246 2.225a3.332 3.332 0 01-1.266 1.899 5.646 5.646 0 01-5.908.234l-.851-.477a.75.75 0 01.734-1.308l.851.477a4.148 4.148 0 004.32-.159c.333-.258.565-.617.662-1.018a1.793 1.793 0 00-.134-1.212.75.75 0 01.342-1.004z"/>
</svg>
