<svg xmlns="http://www.w3.org/2000/svg" width="16" height="16" fill="none" viewBox="0 0 16 16">
  <path fill="#6C7679" fill-rule="evenodd" d="M1 1.75A.75.75 0 011.75 1h9.784a2.14 2.14 0 012.063 1.573l1.328 4.715A2.138 2.138 0 0112.86 9.99H9.518v3.566a1.447 1.447 0 01-1.767 1.407 1.445 1.445 0 01-.737-.426L2.81 9.99H1.75a.75.75 0 010-1.5h1.389a.75.75 0 01.55.24l4.33 4.684V9.24a.75.75 0 01.75-.75h4.092a.64.64 0 00.617-.805l-1.327-4.714a.639.639 0 00-.616-.471H1.75A.75.75 0 011 1.75z" clip-rule="evenodd"/>
</svg>
