<svg xmlns="http://www.w3.org/2000/svg" width="16" height="16" fill="none" viewBox="0 0 16 16">
  <path fill="#6C7679" d="M14.69 2.31a2.45 2.45 0 00-.85-.93A2.42 2.42 0 0012.65 1a2.51 2.51 0 00-1.25.28L5.72 4.47H3.54a2.55 2.55 0 00-1.81.78A2.63 2.63 0 001 7.08v1.85a2.63 2.63 0 00.73 1.83 2.539 2.539 0 001.81.77h2.18l5.7 3.2c.346.178.73.27 1.12.27h.11c.423-.02.834-.15 1.19-.38.362-.23.659-.551.86-.93a2.59 2.59 0 00.3-1.22V3.53a2.57 2.57 0 00-.31-1.22zM2.81 9.72a1.15 1.15 0 01-.31-.79V7.08a1.12 1.12 0 01.31-.79A1 1 0 013.54 6H5v4H3.54a1 1 0 01-.73-.28zm10.69 2.75a1.059 1.059 0 01-.47.89.88.88 0 01-.45.14 1 1 0 01-.45-.09L6.5 10.25V5.76l5.61-3.16a1 1 0 01.47-.1.93.93 0 01.45.15 1 1 0 01.34.37 1 1 0 01.13.51v8.94z"/>
</svg>
