<svg xmlns="http://www.w3.org/2000/svg" width="16" height="16" fill="none" viewBox="0 0 16 16">
  <path fill="#6C7679" fill-rule="evenodd" d="M11.103 9.195c-.163-.076-.92-.455-1.062-.51-.152-.043-.25-.075-.357.087-.098.153-.401.499-.488.596-.098.109-.184.119-.336.044-.163-.076-.66-.239-1.257-.77a4.588 4.588 0 0 1-.867-1.062c-.086-.162-.01-.238.066-.324.075-.065.162-.174.238-.271a.275.275 0 0 0 .054-.065c.043-.065.065-.119.098-.184a.266.266 0 0 0-.01-.271c-.035-.076-.348-.846-.478-1.149-.13-.314-.26-.26-.347-.26-.097 0-.195-.011-.303-.011a.534.534 0 0 0-.412.195c-.152.153-.553.52-.553 1.29.002.176.031.352.088.52.151.552.498.996.552 1.072.076.109 1.072 1.712 2.654 2.33 1.592.617 1.592.411 1.875.39.282-.023.92-.369 1.05-.737.13-.358.13-.672.088-.737-.033-.054-.141-.097-.293-.173Z" clip-rule="evenodd"/>
  <path fill="#6C7679" fill-rule="evenodd" d="M4.944 2.874a6.088 6.088 0 0 1 5.862-.231 6.088 6.088 0 1 1-5.649 10.783l-2.167.731a.75.75 0 0 1-.937-.987l.79-1.99a6.088 6.088 0 0 1 2.101-8.306Zm3.144.626A4.588 4.588 0 0 0 4.3 10.677a.75.75 0 0 1 .078.7l-.334.841.956-.323a.75.75 0 0 1 .64.076A4.588 4.588 0 1 0 8.088 3.5Z" clip-rule="evenodd"/>
</svg>
