<svg xmlns="http://www.w3.org/2000/svg" width="24" height="24" fill="none" viewBox="0 0 24 24">
  <path fill="#6C7679" d="M16.849 8.847a1.69 1.69 0 1 0 0-3.378 1.69 1.69 0 0 0 0 3.378Z"/>
  <path fill="#6C7679" fill-rule="evenodd" d="M21.366 3.17a1 1 0 0 0-.53-.53c-.21-.09-5.177-2.13-8.894 1.59a14.904 14.904 0 0 0-2.08 2.708c-2.398-1.13-4.947-.35-7.575 2.349a1 1 0 0 0-.128 1.238c.081.126.19.233.318.311l4.527 2.73 3.438 3.438 2.729 4.528a.999.999 0 0 0 .73.47h.1a.999.999 0 0 0 .699-.28c2.698-2.63 3.478-5.178 2.349-7.587a14.788 14.788 0 0 0 2.698-2.06c3.748-3.728 1.71-8.696 1.62-8.905ZM7.54 10.863c-.1.168-.198.334-.295.503l-2.588-1.56c1.829-1.529 3.148-1.559 4.167-1.149-.29.49-.59 1-.88 1.51-.132.236-.269.467-.404.696Zm1.314 1.713c.221-.364.436-.739.65-1.112l.17-.298.16-.28 3.288 3.289-.22.12-1.47.86-2.578-2.58Zm5.347 6.777-1.559-2.59 1.26-.759 1.449-.84c.41 1.03.38 2.36-1.15 4.189Zm1-6.408-.25.14-3.998-3.998c0-.055.043-.11.086-.166a.81.81 0 0 0 .054-.074v-.05a17.183 17.183 0 0 1 2.289-3.149 6.236 6.236 0 0 1 6.306-1.309 6.278 6.278 0 0 1-1.32 6.337 16.41 16.41 0 0 1-3.167 2.27Z" clip-rule="evenodd"/>
  <path fill="#6C7679" fill-rule="evenodd" d="M7.164 15.164c.377.154.718.386 1 .68v.02a2.999 2.999 0 0 1 .9 2.23 2.9 2.9 0 0 1-.26 1.189 3.09 3.09 0 0 1-.71 1c-.9.879-3.728 1.498-4.898 1.718h-.19a1 1 0 0 1-.7-.29.999.999 0 0 1-.269-.9c.22-1.169.84-3.987 1.73-4.907a3.06 3.06 0 0 1 .999-.7 2.86 2.86 0 0 1 1.189-.26c.414-.009.825.066 1.21.22Zm-.41 3.639c.107-.099.192-.218.25-.35a1 1 0 0 0 .07-.42 1 1 0 0 0-.07-.42 1.099 1.099 0 0 0-.6-.6 1.09 1.09 0 0 0-.4-.07.999.999 0 0 0-.449.06c-.12.07-.225.161-.31.27a8.188 8.188 0 0 0-.88 2.4 8.354 8.354 0 0 0 2.39-.87Z" clip-rule="evenodd"/>
</svg>
