<svg xmlns="http://www.w3.org/2000/svg" width="24" height="24" fill="none" viewBox="0 0 24 24">
  <path fill="#6C7679" fill-rule="evenodd" d="M5 3a1 1 0 00-1 1v2a1 1 0 01-2 0V4a3 3 0 013-3h14a3 3 0 013 3v2a1 1 0 11-2 0V4a1 1 0 00-1-1H5zM3 15a1 1 0 011 1v2a1 1 0 001 1h14a1 1 0 001-1v-2a1 1 0 112 0v2a3 3 0 01-3 3H5a3 3 0 01-3-3v-2a1 1 0 011-1zm7.936-8.351A1 1 0 009.2 6.4L6.5 10H3a1 1 0 100 2h4a1 1 0 00.8-.4l1.905-2.54 2.359 6.291a1 1 0 001.736.249l2.7-3.6H21a1 1 0 100-2h-5a1 1 0 00-.8.4l-1.905 2.54-2.359-6.291z" clip-rule="evenodd"/>
</svg>
