<svg xmlns="http://www.w3.org/2000/svg" width="24" height="24" fill="none" viewBox="0 0 24 24">
  <path fill="#6C7679" d="M12 7a1 1 0 011 1v4a1 1 0 11-2 0V8a1 1 0 011-1zM10.94 17.56a1.5 1.5 0 112.12-2.12 1.5 1.5 0 01-2.12 2.12z"/>
  <path fill="#6C7679" fill-rule="evenodd" d="M10.549 2.398a2.845 2.845 0 013.945 1.078l7.008 12.567a4.018 4.018 0 01-3.523 5.959H6.017A4.019 4.019 0 012 18.047c-.01-.698.161-1.386.498-1.998l.002-.004 7.006-12.57a2.845 2.845 0 011.043-1.077zM6.017 20H17.98a2.022 2.022 0 001.772-2.991l-.001-.002L12.74 4.439a.844.844 0 00-1.483 0l-.003.007L4.25 17.014l-.001.002a2.015 2.015 0 001.768 2.986z" clip-rule="evenodd"/>
</svg>
