<svg xmlns="http://www.w3.org/2000/svg" width="24" height="24" fill="none" viewBox="0 0 24 24">
  <path fill="#6C7679" d="M22 11.93A10 10 0 0 0 8.39 2.67 10 10 0 0 0 2 12.91a10 10 0 0 0 8.11 8.91c.623.115 1.256.172 1.89.17a9.999 9.999 0 0 0 4.46-1 1 1 0 1 0-.88-1.79c-1.945.858-4.23 1.19-6.212.422-1.982-.77-3.808-2.577-4.666-4.522a8.017 8.017 0 0 1-.14-6.134c.77-1.982 2.603-3.578 4.548-4.436a8.11 8.11 0 0 1 5.08-.23A8 8 0 0 1 20 11.99a.577.577 0 0 0 0 .13 2.56 2.56 0 0 1-1.69 2.75.94.94 0 0 1-.47 0 1 1 0 0 1-.43-.17 1 1 0 0 1-.42-.82v-1.89a5 5 0 0 0-9.62-1.91 4.92 4.92 0 0 0-.27 2.91 5 5 0 0 0 6.81 3.62 5.06 5.06 0 0 0 1.59-1.07 2.78 2.78 0 0 0 2.06 1.35 2.94 2.94 0 0 0 1.44-.13 4.5 4.5 0 0 0 2.38-1.91 4.55 4.55 0 0 0 .62-2.92Zm-8.85 2.83a3 3 0 0 1-3.92-3.92 3 3 0 0 1 1.1-1.34A2.93 2.93 0 0 1 12 8.99a3 3 0 0 1 2.12.88 3 3 0 0 1 .38 3.79 3.09 3.09 0 0 1-1.35 1.1Z"/>
</svg>
