<svg xmlns="http://www.w3.org/2000/svg" width="24" height="24" fill="none" viewBox="0 0 24 24">
  <path fill="#6C7679" d="M22 11.93A10 10 0 008.39 2.67 10 10 0 002 12.91a10 10 0 008.11 8.91c.623.115 1.256.172 1.89.17a10 10 0 004.46-1 .999.999 0 10-.88-1.79c-1.945.858-4.23 1.19-6.212.422-1.982-.77-3.808-2.577-4.666-4.522a8.017 8.017 0 01-.14-6.134c.77-1.982 2.603-3.578 4.548-4.436a8.11 8.11 0 015.08-.23A8 8 0 0120 11.99a.565.565 0 000 .13 2.56 2.56 0 01-1.69 2.75.94.94 0 01-.47 0 1 1 0 01-.43-.17.999.999 0 01-.42-.82v-1.89a5 5 0 00-9.62-1.91 4.92 4.92 0 00-.27 2.91 5 5 0 006.81 3.62 5.06 5.06 0 001.59-1.07 2.778 2.778 0 002.06 1.35 2.94 2.94 0 001.44-.13 4.5 4.5 0 002.38-1.91 4.55 4.55 0 00.62-2.92zm-8.85 2.83a3 3 0 01-3.92-3.92 3 3 0 011.1-1.34A2.93 2.93 0 0112 8.99a3 3 0 012.12.88 3 3 0 01.38 3.79 3.09 3.09 0 01-1.35 1.1z"/>
</svg>
