<svg xmlns="http://www.w3.org/2000/svg" width="24" height="24" fill="none" viewBox="0 0 24 24">
  <path fill="#6C7679" fill-rule="evenodd" d="M13.397 2.425a1 1 0 010 1.414l-7.572 7.57a5 5 0 00.182 7.245 5.232 5.232 0 007.116-.399l.014-.014 5.77-5.77a2.503 2.503 0 00-.31-3.8 2.628 2.628 0 00-3.342.38l-.016.016-3.05 3.05a2 2 0 000 2.828 1 1 0 11-1.414 1.414 4 4 0 010-5.656l3.042-3.043a4.628 4.628 0 015.926-.63 4.502 4.502 0 01.578 6.855l-5.763 5.763a7.233 7.233 0 01-9.874.506 7 7 0 01-.273-10.16l7.572-7.57a1 1 0 011.414.001z" clip-rule="evenodd"/>
</svg>
