<svg xmlns="http://www.w3.org/2000/svg" width="24" height="24" fill="none" viewBox="0 0 24 24">
  <path fill="#6C7679" fill-rule="evenodd" d="M12 6a3.5 3.5 0 100 7 3.5 3.5 0 000-7zm-1.06 2.44a1.5 1.5 0 112.12 2.121 1.5 1.5 0 01-2.12-2.122z" clip-rule="evenodd"/>
  <path fill="#6C7679" fill-rule="evenodd" d="M12 2a7.5 7.5 0 00-6.173 11.76l-3.704 6.76a1 1 0 001.041 1.466l6-1a1 1 0 00.776-.646l1.225-3.387a7.488 7.488 0 001.67 0l1.225 3.387a1 1 0 00.776.646l6 1a1 1 0 001.04-1.467l-3.703-6.759A7.5 7.5 0 0012 2zm4.239 11.005A5.496 5.496 0 0112 15a5.5 5.5 0 114.239-1.995zm.503 2.306l2.392 4.364-3.392-.565-.957-2.646a7.499 7.499 0 001.957-1.153zM4.866 19.675l2.392-4.364a7.5 7.5 0 001.957 1.153l-.957 2.646-3.392.565z" clip-rule="evenodd"/>
</svg>
