<svg xmlns="http://www.w3.org/2000/svg" width="24" height="24" fill="none" viewBox="0 0 24 24">
  <path fill="#6C7679" fill-rule="evenodd" d="M20 16h1a1 1 0 0 1 1 1v4a1 1 0 0 1-1 1H3a1 1 0 0 1-1-1v-4a1 1 0 0 1 1-1h1v-5h-.133a1.709 1.709 0 0 1-1.116-3.11l.007-.005 8.188-5.565a1.896 1.896 0 0 1 2.116 0l.005.003 8.182 5.566A1.71 1.71 0 0 1 20.133 11H20v5ZM4.675 9l7.329-4.98L19.326 9h-.317a.961.961 0 0 0-.018 0H4.675ZM18 11h-2v5h2v-5ZM4 18v2h16v-2H4Zm6-7h4v5h-4v-5Zm-2 0H6v5h2v-5Z" clip-rule="evenodd"/>
</svg>
