<svg xmlns="http://www.w3.org/2000/svg" width="24" height="24" fill="none" viewBox="0 0 24 24">
  <path fill="#6C7679" fill-rule="evenodd" d="M12 9a4 4 0 100 8 4 4 0 000-8zm-1.414 2.586a2 2 0 112.828 2.828 2 2 0 01-2.828-2.828z" clip-rule="evenodd"/>
  <path fill="#6C7679" fill-rule="evenodd" d="M9 3a1 1 0 00-.894.553L6.382 7H5a3 3 0 00-3 3v8a3 3 0 003 3h14a3 3 0 003-3v-8a3 3 0 00-3-3h-1.382l-1.724-3.447A1 1 0 0015 3H9zM7.894 8.447L9.618 5h4.764l1.724 3.447A1 1 0 0017 9h2a1 1 0 011 1v8a1 1 0 01-1 1H5a1 1 0 01-1-1v-8a1 1 0 011-1h2a1 1 0 00.894-.553z" clip-rule="evenodd"/>
</svg>
