<svg xmlns="http://www.w3.org/2000/svg" width="24" height="24" fill="none" viewBox="0 0 24 24">
  <path fill="#6C7679" d="M11 12.5a1.5 1.5 0 11-3 0 1.5 1.5 0 013 0zM14.5 14a1.5 1.5 0 100-3 1.5 1.5 0 000 3z"/>
  <path fill="#6C7679" fill-rule="evenodd" d="M6.837 3.436A10 10 0 0112 2a10.003 10.003 0 019.828 8.194A10 10 0 017.085 20.713l-3.764 1.27a1 1 0 01-1.25-1.316l1.38-3.478A10 10 0 016.838 3.436zM12 4a8 8 0 00-6.604 12.516 1 1 0 01.104.933l-.773 1.949 2.154-.727a1 1 0 01.852.1A8 8 0 1012 4z" clip-rule="evenodd"/>
</svg>
