<svg xmlns="http://www.w3.org/2000/svg" width="24" height="24" fill="none" viewBox="0 0 24 24">
  <path fill="#6C7679" d="M4.26 5.26A.889.889 0 014.89 5h10.389a1 1 0 100-2H4.888A2.889 2.889 0 002 5.889V19.11A2.889 2.889 0 004.889 22H18.11A2.89 2.89 0 0021 19.111V12.5a1 1 0 10-2 0v6.611a.89.89 0 01-.889.889H4.89A.89.89 0 014 19.111V5.89c0-.236.094-.462.26-.629z"/>
  <path fill="#6C7679" d="M12.707 14.707l9-9a1 1 0 00-1.414-1.414L12 12.586l-2.293-2.293a1 1 0 10-1.414 1.414l3 3a1 1 0 001.414 0z"/>
</svg>
