<svg xmlns="http://www.w3.org/2000/svg" width="24" height="24" fill="none" viewBox="0 0 24 24">
  <path fill="#6C7679" fill-rule="evenodd" d="M12.276 4.31a1 1 0 0 1 1.414-.034l6.771 6.45.017.015a1.777 1.777 0 0 1 0 2.518l-.017.016-6.771 6.45a1 1 0 0 1-1.38-1.45L18.9 12l-6.59-6.276a1 1 0 0 1-.034-1.414Z" clip-rule="evenodd"/>
  <path fill="#6C7679" fill-rule="evenodd" d="M3.276 4.31a1 1 0 0 1 1.414-.034l6.771 6.45.017.015a1.777 1.777 0 0 1 0 2.518l-.017.016-6.771 6.45a1 1 0 1 1-1.38-1.45L9.9 12 3.31 5.724a1 1 0 0 1-.034-1.414Z" clip-rule="evenodd"/>
</svg>
