<svg xmlns="http://www.w3.org/2000/svg" width="24" height="24" fill="none" viewBox="0 0 24 24">
  <path fill="#6C7679" fill-rule="evenodd" d="M8.49 5.39A4.918 4.918 0 0111.986 4h.028A4.918 4.918 0 0117 8.84V9a2 2 0 00-2 2v5a2 2 0 002 2 2.04 2.04 0 01-2.007 2H12a1 1 0 100 2h3.013A4.04 4.04 0 0019 18a3 3 0 003-3v-3a3 3 0 00-3-3V8.818A6.918 6.918 0 0012 2a6.918 6.918 0 00-7 6.818V9a3 3 0 00-3 3v3a3 3 0 003 3h2a2 2 0 002-2v-5a2 2 0 00-2-2v-.16a4.918 4.918 0 011.49-3.45zM19 16a1 1 0 001-1v-3a1 1 0 00-1-1h-2v5h2zM5.986 11H7v5H5a1 1 0 01-1-1v-3a1 1 0 011-1h.986z" clip-rule="evenodd"/>
</svg>
