<svg xmlns="http://www.w3.org/2000/svg" width="24" height="24" fill="none" viewBox="0 0 24 24">
  <path fill="#6C7679" d="M8.837 2h5.371a1.814 1.814 0 0 1 1.572 2.618l-.896 1.858c1.832.85 3.069 2.361 3.86 3.97.927 1.887 1.284 3.988 1.29 5.585a3.533 3.533 0 0 1-1.172 2.902 1 1 0 0 1-1.331-1.494 1.532 1.532 0 0 0 .507-1.28.99.99 0 0 1-.004-.087c0-1.35-.307-3.16-1.086-4.744-.773-1.573-1.964-2.844-3.713-3.335a1 1 0 0 1-.63-1.398L13.858 4H9.187l1.252 2.595a1 1 0 0 1-.63 1.398c-1.747.491-2.94 1.762-3.712 3.335-.78 1.585-1.087 3.394-1.087 4.744 0 .03-.001.06-.004.09a1.522 1.522 0 0 0 .525 1.29 1 1 0 0 1-1.302 1.52A3.523 3.523 0 0 1 3.01 16.03c.006-1.597.364-3.697 1.292-5.584.79-1.609 2.027-3.12 3.859-3.97l-.897-1.858A1.814 1.814 0 0 1 8.837 2Z"/>
  <path fill="#6C7679" d="M8.572 18.284c0 .705.974 1.256 1.958 1.49a1 1 0 0 0-.008.122V21a1 1 0 1 0 2 0v-1.104c0-.023 0-.045-.002-.067l.046-.013a2.638 2.638 0 0 0 1.906-2.376c0-1.446-1.35-1.957-2.405-2.356-.675-.255-1.229-.465-1.229-.844 0-.408.334-.582.712-.582.388 0 .81.193 1.175.36.28.127.526.24.7.24a.904.904 0 0 0 .86-.934c0-.772-.888-1.234-1.767-1.418a.85.85 0 0 0 .004-.088V11a1 1 0 1 0-2 0v.818a1 1 0 0 0 .008.122 2.538 2.538 0 0 0-1.696 2.314c0 1.469 1.363 1.983 2.419 2.382.668.252 1.213.458 1.213.83 0 .4-.188.6-.828.6-.518 0-.865-.196-1.194-.382-.299-.17-.584-.33-.97-.33a.986.986 0 0 0-.902.93Z"/>
</svg>
