<svg xmlns="http://www.w3.org/2000/svg" width="24" height="24" fill="none" viewBox="0 0 24 24">
  <path fill="#6C7679" fill-rule="evenodd" d="M21.32 4.09c.217.216.387.475.5.76a2.289 2.289 0 010 1.78 2.228 2.228 0 01-.5.76l-7.59 7.62a.999.999 0 01-.53.27l-4 .71H9a1 1 0 01-.71-.32 1 1 0 01-.27-.88l.7-4c.04-.2.137-.384.28-.53l7.61-7.58a2.45 2.45 0 01.76-.5 2.29 2.29 0 011.78 0c.283.116.541.286.76.5l1.41 1.41zm-1.39 1.88a.23.23 0 00.07-.1.308.308 0 00-.02-.13.492.492 0 000-.12.31.31 0 00-.08-.11L18.46 4.1a.309.309 0 00-.11-.08.36.36 0 00-.25 0 .39.39 0 00-.1.08l-7.31 7.35-.41 2.28 2.29-.4 7.36-7.36z" clip-rule="evenodd"/>
  <path fill="#6C7679" d="M18.293 14.713A1 1 0 0120 15.42v4.17a2.23 2.23 0 01-.19.92 2.47 2.47 0 01-.52.79c-.229.22-.497.397-.79.52a2.939 2.939 0 01-.93.17H4.39a2.51 2.51 0 01-.89-.17 2.581 2.581 0 01-.79-.52 2.31 2.31 0 01-.52-.79 2.23 2.23 0 01-.19-.92V6.39a2.31 2.31 0 01.19-.93c.124-.29.3-.555.52-.78.231-.223.503-.4.8-.52a2.88 2.88 0 01.92-.17h4.24a1 1 0 010 2H4.42a.86.86 0 00-.17 0 .57.57 0 00-.16.11.51.51 0 00-.09.13.45.45 0 000 .16v13.2a.4.4 0 000 .15.569.569 0 00.25.22.764.764 0 00.16 0h13.2c.057.005.114.005.17 0a.382.382 0 00.13-.09.3.3 0 00.09-.13c.01-.05.01-.1 0-.15v-4.17a1 1 0 01.293-.707z"/>
</svg>
