<svg xmlns="http://www.w3.org/2000/svg" width="24" height="24" fill="none" viewBox="0 0 24 24">
  <path fill="#6C7679" fill-rule="evenodd" d="M1.86 21a1 1 0 011-1h18a1 1 0 010 2h-18a1 1 0 01-1-1zM18.04 4.108l-8.996 9-.427 2.413 2.415-.425 8.997-9 .001-.002a.372.372 0 000-.527l-1.459-1.46a.377.377 0 00-.53 0zm-1.412-1.416a2.376 2.376 0 013.356 0l.001.001 1.457 1.457a2.376 2.376 0 01.516 2.59c-.12.288-.295.55-.515.77h-.001l-9.219 9.223a1 1 0 01-.534.278l-4.132.728A1 1 0 016.4 16.58l.73-4.13a1 1 0 01.278-.533l9.22-9.225z" clip-rule="evenodd"/>
</svg>
