<svg xmlns="http://www.w3.org/2000/svg" width="24" height="24" fill="none" viewBox="0 0 24 24">
  <path fill="#6C7679" d="M2.879 2.879A3 3 0 015 2h7a1 1 0 110 2H5a1 1 0 00-1 1v14a1 1 0 001 1h6a1 1 0 110 2H5a3 3 0 01-3-3V5a3 3 0 01.879-2.121z"/>
  <path fill="#6C7679" fill-rule="evenodd" d="M18 2a1 1 0 01.858.486l3 5A1 1 0 0122 8v10a4 4 0 11-8 0V8a1 1 0 01.143-.514l3-5A1 1 0 0118 2zm-2 6.277V18a2 2 0 004 0V8.277l-2-3.333-2 3.333z" clip-rule="evenodd"/>
  <path fill="#6C7679" d="M7 8a1 1 0 000 2h4a1 1 0 100-2H7z"/>
</svg>
