<svg xmlns="http://www.w3.org/2000/svg" width="24" height="24" fill="none" viewBox="0 0 24 24">
  <path fill="#6C7679" fill-rule="evenodd" d="M16.263 4.151L5.378 15.081l-1.002 4.567 4.563-1.002L19.834 7.724a.478.478 0 00-.06-.653 1.006 1.006 0 01-.047-.044l-2.77-2.768a.978.978 0 01-.043-.046.478.478 0 00-.65-.062zm-1.33-1.495a2.478 2.478 0 013.457.208l2.731 2.73a2.478 2.478 0 01.159 3.512l-11.132 11.16a1 1 0 01-.494.27l-6.376 1.4a1 1 0 01-1.19-1.19l1.4-6.378a1 1 0 01.267-.492L14.88 2.706a.98.98 0 01.055-.05z" clip-rule="evenodd"/>
</svg>
