<svg xmlns="http://www.w3.org/2000/svg" width="24" height="24" fill="none" viewBox="0 0 24 24">
  <path fill="#6C7679" fill-rule="evenodd" d="M21.207 4.207a1 1 0 10-1.414-1.414l-17 17a1 1 0 101.414 1.414l17-17zm-8.212 2.195a1 1 0 01-.896 1.093 11.97 11.97 0 00-8.005 4.233.34.34 0 000 .468l.007.008a18.622 18.622 0 001.55 1.488 1 1 0 01-1.301 1.52 20.629 20.629 0 01-1.712-1.644 2.34 2.34 0 01-.018-3.192 13.97 13.97 0 019.282-4.871 1 1 0 011.093.897zm5.239 2.441a1 1 0 011.409-.123 18.93 18.93 0 011.72 1.637 2.34 2.34 0 010 3.21c-.764.824-2.021 2.041-3.609 3.058C16.17 17.64 14.188 18.5 12 18.5a1 1 0 110-2c1.668 0 3.273-.66 4.675-1.559 1.397-.895 2.527-1.984 3.223-2.737l.008-.008a.34.34 0 000-.468l-.008-.008a16.938 16.938 0 00-1.54-1.468 1 1 0 01-.124-1.409z" clip-rule="evenodd"/>
</svg>
