<svg xmlns="http://www.w3.org/2000/svg" width="24" height="24" fill="none" viewBox="0 0 24 24">
  <path fill="#6C7679" fill-rule="evenodd" d="M12.099 5.505a1.001 1.001 0 00-.197 0 13.97 13.97 0 00-9.282 4.87 2.34 2.34 0 00.018 3.192c.764.824 2.02 2.04 3.608 3.058C7.83 17.64 9.812 18.5 12 18.5c2.188 0 4.17-.86 5.754-1.875 1.587-1.017 2.845-2.234 3.608-3.058a2.34 2.34 0 00.018-3.191 13.97 13.97 0 00-9.281-4.871zm-7.967 6.18A11.97 11.97 0 0112 7.505a11.97 11.97 0 017.907 4.223.34.34 0 010 .468l-.009.008c-.696.752-1.826 1.842-3.223 2.737C15.273 15.84 13.668 16.5 12 16.5c-1.668 0-3.272-.66-4.675-1.559-1.397-.895-2.527-1.985-3.223-2.737l-.008-.008a.34.34 0 010-.468 1.03 1.03 0 00.038-.043zM12 8.5a3.5 3.5 0 100 7 3.5 3.5 0 000-7zm-1.06 2.44a1.5 1.5 0 112.12 2.12 1.5 1.5 0 01-2.12-2.12z" clip-rule="evenodd"/>
</svg>
