<svg xmlns="http://www.w3.org/2000/svg" width="24" height="24" fill="none" viewBox="0 0 24 24">
  <path fill="#6C7679" d="M21.81 2.9a1.8 1.8 0 0 0-.53-.6 1.75 1.75 0 0 0-1.52-.21L3.61 7.55a2.35 2.35 0 0 0-1.16.85A2.27 2.27 0 0 0 2 9.77v1.44a2.32 2.32 0 0 0 .44 1.39c.292.4.7.701 1.17.86l.61.21A5.86 5.86 0 0 0 4 15.22 5.69 5.69 0 0 0 8.9 21c.255.036.512.053.77.05A5.61 5.61 0 0 0 15 17.3l4.79 1.61c.174.06.356.09.54.09h.24a1.77 1.77 0 0 0 .74-.29 1.662 1.662 0 0 0 .69-1.39V3.67a1.69 1.69 0 0 0-.19-.77ZM4 11.23V9.77a.33.33 0 0 1 .06-.19.52.52 0 0 1 .19-.14L15 5.81v9.38L4.26 11.57a.43.43 0 0 1-.2-.14.34.34 0 0 1-.06-.2Zm7.73 7.16a3.66 3.66 0 0 1-4.85-.66A3.65 3.65 0 0 1 6 15.24a3.6 3.6 0 0 1 .13-.93l7 2.35a3.69 3.69 0 0 1-1.4 1.73ZM20 16.88l-3-1V5.13l3-1v12.75Z"/>
</svg>
