<svg xmlns="http://www.w3.org/2000/svg" width="24" height="24" fill="none" viewBox="0 0 24 24">
  <path fill="#6C7679" d="M8 14a1 1 0 011-1h2v-2a1 1 0 112 0v2h2a1 1 0 110 2h-2v2a1 1 0 11-2 0v-2H9a1 1 0 01-1-1z"/>
  <path fill="#6C7679" fill-rule="evenodd" d="M8.558 2a3 3 0 012.847 2.052L11.72 5H19a3 3 0 013 3v11a3 3 0 01-3 3H5a3 3 0 01-3-3V5a3 3 0 013-3h3.558zm.585 2.189A1 1 0 008.558 4H5a1 1 0 00-1 1v14a1 1 0 001 1h14a1 1 0 001-1V8a1 1 0 00-1-1h-8a1 1 0 01-.949-.684l-.544-1.632a1 1 0 00-.364-.495z" clip-rule="evenodd"/>
</svg>
