<svg xmlns="http://www.w3.org/2000/svg" width="24" height="24" fill="none" viewBox="0 0 24 24">
  <path fill="#6C7679" d="M4.384 5A.384.384 0 004 5.384V15.77a1 1 0 11-2 0V5.384A2.384 2.384 0 014.384 3h12.462a1 1 0 110 2H4.384z"/>
  <path fill="#6C7679" fill-rule="evenodd" d="M6 8a1 1 0 011-1h14a1 1 0 011 1v12a1 1 0 01-1 1H7a1 1 0 01-1-1V8zm2 10.502l4.217-4.702a2.358 2.358 0 013.532-.003L20 18.477V9H8v9.502zm9.773.498l-3.51-3.864-.01-.012a.358.358 0 00-.538 0l-.006.008L10.239 19h7.534z" clip-rule="evenodd"/>
</svg>
