<svg xmlns="http://www.w3.org/2000/svg" width="24" height="24" fill="none" viewBox="0 0 24 24">
  <path fill="#6C7679" fill-rule="evenodd" d="M14 2h1a1 1 0 110 2h-.526L10.4 8.978l2.162 2.542a1 1 0 11-1.523 1.296l-1.927-2.264-3.339 4.081a1 1 0 01-1.548-1.266l3.57-4.363-1.818-2.136a1 1 0 011.524-1.296L9.083 7.43 11.89 4H3a1 1 0 010-2h11zm2.5 9a1 1 0 01.894.553l3.492 6.982a.981.981 0 01.018.037l.99 1.98a1 1 0 11-1.788.895L19.382 20h-5.764l-.724 1.447a1 1 0 11-1.788-.894l.99-1.98a.832.832 0 01.019-.038l3.49-6.982A1 1 0 0116.5 11zm-1.882 7h3.764L16.5 14.236 14.618 18z" clip-rule="evenodd"/>
</svg>
