<svg xmlns="http://www.w3.org/2000/svg" width="24" height="24" fill="none" viewBox="0 0 24 24">
  <path fill="#6C7679" d="M12.284 16.29l-3.411 3.413a.87.87 0 01-.32.22 1 1 0 01-1.11-.22L4.3 16.551a1.001 1.001 0 01-.22-1.1.83.83 0 01.22-.331l3.401-3.413a1.005 1.005 0 00-1.42-1.42L2.88 13.698a3.003 3.003 0 00-.65 1 3.004 3.004 0 000 2.312c.148.374.369.715.65 1.001l3.112 3.113c.286.281.626.502 1 .65a3 3 0 001.17.23 3.06 3.06 0 001.15-.23 2.998 2.998 0 001.001-.65l3.411-3.413a1.005 1.005 0 00-1.42-1.421h-.02zM21.767 6.994a3.002 3.002 0 00-.65-1.001l-3.121-3.112a3.001 3.001 0 00-1-.65 3.08 3.08 0 00-2.311 0 3.001 3.001 0 00-1 .65l-3.412 3.402a1.005 1.005 0 001.42 1.421l3.412-3.402a.831.831 0 01.33-.22.94.94 0 01.77 0c.124.05.236.125.33.22l3.162 3.152a1 1 0 01.22 1.101.831.831 0 01-.22.33l-3.412 3.403a1 1 0 000 1.42 1.002 1.002 0 001.42 0l3.412-3.402c.282-.286.503-.627.65-1a3.002 3.002 0 000-2.312z"/>
  <path fill="#6C7679" d="M14.285 8.285l-6.003 6.004a1.002 1.002 0 00.326 1.64 1 1 0 001.095-.219l6.002-6.004a1.005 1.005 0 00-1.42-1.421z"/>
</svg>
