<svg xmlns="http://www.w3.org/2000/svg" width="24" height="24" fill="none" viewBox="0 0 24 24">
  <path fill="#6C7679" d="M12 2a1 1 0 011 1v3.676a1 1 0 01-2 0V3a1 1 0 011-1zM3.773 6.006a1 1 0 011.413-.073L7.944 8.42a1 1 0 11-1.34 1.486L3.848 7.419a1 1 0 01-.074-1.412zM6.99 14.377a1 1 0 10-.688-1.878l-3.626 1.328a1 1 0 10.688 1.878l3.626-1.328zM10.205 16.816a1 1 0 01.441 1.343l-1.663 3.292a1 1 0 11-1.785-.902l1.664-3.292a1 1 0 011.343-.442zM20.154 7.419a1 1 0 00-1.34-1.486L16.056 8.42a1 1 0 001.34 1.486l2.758-2.486zM16.415 13.094a1 1 0 011.283-.595l3.626 1.328a1 1 0 01-.688 1.878l-3.626-1.328a1 1 0 01-.595-1.283zM15.139 17.257a1 1 0 10-1.785.902l1.664 3.292a1 1 0 101.784-.902l-1.663-3.292z"/>
</svg>
