<svg xmlns="http://www.w3.org/2000/svg" width="24" height="24" fill="none" viewBox="0 0 24 24">
  <path fill="#6C7679" fill-rule="evenodd" d="M5 2a1 1 0 0 0 0 2h14a1 1 0 1 0 0-2H5ZM4 7a1 1 0 0 1 1-1h14a1 1 0 1 1 0 2H5a1 1 0 0 1-1-1Zm-1.121 3.879A3 3 0 0 1 5 10h4a1 1 0 0 1 1 1v2h4v-2a1 1 0 0 1 1-1h4a3 3 0 0 1 3 3v6a3 3 0 0 1-3 3H5a3 3 0 0 1-3-3v-6a3 3 0 0 1 .879-2.121ZM5 12a1 1 0 0 0-1 1v6a1 1 0 0 0 1 1h14a1 1 0 0 0 1-1v-6a1 1 0 0 0-1-1h-3v2a1 1 0 0 1-1 1H9a1 1 0 0 1-1-1v-2H5Z" clip-rule="evenodd"/>
</svg>
