<svg xmlns="http://www.w3.org/2000/svg" width="24" height="24" fill="none" viewBox="0 0 24 24">
  <path fill="#6C7679" fill-rule="evenodd" d="M9.966 2.063a1 1 0 00-1.287.588L3.833 15.642a1 1 0 001.874.7l1.804-4.838 4.115 1.535a4.852 4.852 0 103.392-9.092L9.966 2.063zm3.458 9.28a2.853 2.853 0 01-1.098-.178L8.21 9.63l1.994-5.344 4.115 1.535a2.854 2.854 0 01.188 5.267c-.34.155-.708.242-1.083.256zm-3.858 5.17l4.116 1.534a4.852 4.852 0 006.512-5.063 1 1 0 00-1.988.212 2.852 2.852 0 01-3.828 2.976l-5.05-1.883a1 1 0 00-1.287.588l-.002.004-2.152 5.77a1 1 0 101.874.699l1.805-4.838z" clip-rule="evenodd"/>
</svg>
