<svg xmlns="http://www.w3.org/2000/svg" width="24" height="24" fill="none" viewBox="0 0 24 24">
  <path fill="#6C7679" fill-rule="evenodd" d="M16.236 2.118a2.038 2.038 0 0 0-2.38.82l-.003.004-2.719 4.26-5.468 1.093a2.038 2.038 0 0 0-1.04 3.44l3.112 3.113-5.445 5.445a1 1 0 0 0 1.414 1.414l5.445-5.445 3.113 3.113a2.037 2.037 0 0 0 3.44-1.041l1.092-5.467 4.26-2.71a2.038 2.038 0 0 0 .346-3.16l-4.4-4.4-.005-.005a2.039 2.039 0 0 0-.762-.474Zm-.673 1.888a.038.038 0 0 1 .03.01l4.396 4.396a.038.038 0 0 1 .006.047.038.038 0 0 1-.012.012l-4.62 2.937a1 1 0 0 0-.444.648l-1.176 5.886a.037.037 0 0 1-.009.018.037.037 0 0 1-.055.001l-7.64-7.64a.038.038 0 0 1 .02-.064l5.885-1.176a1 1 0 0 0 .647-.443l2.945-4.616a.038.038 0 0 1 .027-.016Z" clip-rule="evenodd"/>
</svg>
