<svg xmlns="http://www.w3.org/2000/svg" width="24" height="24" fill="none" viewBox="0 0 24 24">
  <path fill="#6C7679" fill-rule="evenodd" d="M5.832 2.406a3.386 3.386 0 013.575.226l9.13 6.499a3.545 3.545 0 010 5.738l-.007.006-9.122 6.492-.002.002a3.386 3.386 0 01-3.574.225l-.007-.004A3.517 3.517 0 014 18.492V5.508A3.518 3.518 0 015.825 2.41l.007-.003zm.952 1.758A1.518 1.518 0 006 5.501V18.499a1.518 1.518 0 00.784 1.337 1.385 1.385 0 001.46-.095l.002-.002 9.12-6.49a1.546 1.546 0 000-2.498L8.244 4.26a1.386 1.386 0 00-1.46-.095z" clip-rule="evenodd"/>
</svg>
