<svg xmlns="http://www.w3.org/2000/svg" width="24" height="24" fill="none" viewBox="0 0 24 24">
  <path fill="#6C7679" fill-rule="evenodd" d="M5.832 2.406a3.386 3.386 0 0 1 3.575.226l9.13 6.499a3.545 3.545 0 0 1 0 5.738l-.007.006-9.122 6.492-.002.002a3.386 3.386 0 0 1-3.574.225l-.007-.003A3.518 3.518 0 0 1 4 18.49V5.509A3.518 3.518 0 0 1 5.825 2.41l.007-.003Zm.952 1.759A1.518 1.518 0 0 0 6 5.5v12.999a1.518 1.518 0 0 0 .784 1.337 1.386 1.386 0 0 0 1.46-.095l.002-.002 9.12-6.49a1.545 1.545 0 0 0 0-2.497L8.244 4.259a1.386 1.386 0 0 0-1.46-.094Z" clip-rule="evenodd"/>
</svg>
