<svg xmlns="http://www.w3.org/2000/svg" width="24" height="24" fill="none" viewBox="0 0 24 24">
  <path fill="#6C7679" fill-rule="evenodd" d="M4.929 4.929A10 10 0 0111.999 2S12 2 12 2a10 10 0 11-7.07 2.929zm4.95-.643A8 8 0 004.063 11h3.553a16.543 16.543 0 012.263-6.714zM7.616 13H4.063a8 8 0 005.816 6.714A16.542 16.542 0 017.616 13zm6.505 6.714A8 8 0 0019.937 13h-3.553a16.542 16.542 0 01-2.263 6.714zM14.37 13A14.543 14.543 0 0112 19.322 14.542 14.542 0 019.63 13h4.74zm0-2H9.63A14.542 14.542 0 0112 4.678 14.543 14.543 0 0114.37 11zm2.013 0a16.542 16.542 0 00-2.263-6.714A8 8 0 0119.937 11h-3.553z" clip-rule="evenodd"/>
</svg>
