<svg xmlns="http://www.w3.org/2000/svg" width="24" height="24" fill="none" viewBox="0 0 24 24">
  <path fill="#6C7679" fill-rule="evenodd" d="M3 2a1 1 0 00-1 1v18a1 1 0 001 1h18a1 1 0 001-1V3a1 1 0 00-1-1H3zm1 18V4h16v16H4zM7 5.546a1 1 0 100 2h5a1 1 0 100-2H7zM6 10a1 1 0 011-1h5a1 1 0 110 2H7a1 1 0 01-1-1zm12.287 1.773a1 1 0 10-1.714-1.03l-2.85 4.749-3.997-2.284a1 1 0 00-1.328.314l-2.034 3.054a1 1 0 001.664 1.108l1.517-2.276 4.035 2.306a1 1 0 001.353-.353l3.354-5.588z" clip-rule="evenodd"/>
</svg>
