<svg xmlns="http://www.w3.org/2000/svg" width="24" height="24" fill="none" viewBox="0 0 24 24">
  <path fill="#6C7679" d="M19.39 10.94A8 8 0 0012 6H9.41l2.3-2.29A1.005 1.005 0 0011 1.996a1.004 1.004 0 00-.71.294l-4 4a1 1 0 00-.21.33 1 1 0 000 .76 1 1 0 00.21.33l4 4a.999.999 0 001.42 0 1 1 0 000-1.42L9.41 8H12a6 6 0 015.54 3.7 5.89 5.89 0 01.34 3.47 6 6 0 01-4.71 4.71A6 6 0 017 17.33 6 6 0 016 14a1 1 0 00-2 0 8 8 0 004.94 7.39c.97.405 2.01.613 3.06.61.527 0 1.053-.05 1.57-.15a8 8 0 005.83-10.91h-.01z"/>
</svg>
