<svg xmlns="http://www.w3.org/2000/svg" width="24" height="24" fill="none" viewBox="0 0 24 24">
  <path fill="#6C7679" d="M12.575 21.992h-1.12a2.35 2.35 0 0 1-1.34-.41 2.39 2.39 0 0 1-.88-1.11l-.48-1.21-1.39-.809-1.29.19a2.39 2.39 0 0 1-2.42-1.16l-.57-1a2.379 2.379 0 0 1-.32-1.389 2.34 2.34 0 0 1 .51-1.31l.82-1v-1.599l-.82-1a2.399 2.399 0 0 1-.2-2.679l.56-1a2.42 2.42 0 0 1 1-1 2.35 2.35 0 0 1 1.38-.16l1.3.19 1.41-.81.47-1.209a2.41 2.41 0 0 1 .88-1.11 2.38 2.38 0 0 1 1.37-.41h1.13a2.38 2.38 0 0 1 2.22 1.52l.48 1.21 1.39.81 1.29-.19a2.37 2.37 0 0 1 1.39.21 2.42 2.42 0 0 1 1 1l.56.999a2.399 2.399 0 0 1-.2 2.68l-.82.999v1.62l.82 1a2.4 2.4 0 0 1 .2 2.679l-.56 1a2.36 2.36 0 0 1-1 1 2.34 2.34 0 0 1-1.38.209l-1.3-.19-1.39.81-.48 1.21a2.37 2.37 0 0 1-.87 1.11c-.41.232-.88.34-1.35.31Zm-5-5.578a1 1 0 0 1 .5.13l2 1.16a1 1 0 0 1 .43.5l.6 1.549a.39.39 0 0 0 .14.17.34.34 0 0 0 .22.07h1.12a.34.34 0 0 0 .22-.07.391.391 0 0 0 .14-.17l.6-1.55a1 1 0 0 1 .43-.5l2-1.16a1 1 0 0 1 .65-.12l1.64.25a.432.432 0 0 0 .22 0 .411.411 0 0 0 .17-.15l.56-1a.33.33 0 0 0 0-.22.49.49 0 0 0-.08-.209l-1-1.3a1 1 0 0 1-.22-.62v-2.339a1 1 0 0 1 .22-.62l1-1.3a.49.49 0 0 0 .08-.21.33.33 0 0 0 0-.22l-.56-.999a.41.41 0 0 0-.17-.15.33.33 0 0 0-.22 0l-1.64.24a1 1 0 0 1-.61-.13l-2-1.16a1 1 0 0 1-.43-.5l-.6-1.549a.39.39 0 0 0-.14-.17.36.36 0 0 0-.27-.07h-1.12a.3.3 0 0 0-.23.07.39.39 0 0 0-.14.17l-.6 1.55a1 1 0 0 1-.43.5l-2.04 1.16a1.06 1.06 0 0 1-.65.119l-1.61-.25a.42.42 0 0 0-.39.19l-.56 1a.33.33 0 0 0 0 .22.39.39 0 0 0 .08.21l1 1.3a1 1 0 0 1 .22.62v2.319a1 1 0 0 1-.22.62l-1 1.299a.39.39 0 0 0-.08.21.33.33 0 0 0 0 .22l.58 1a.35.35 0 0 0 .17.17.341.341 0 0 0 .22 0l1.64-.24.16-.04Zm4.44-.92a3.51 3.51 0 0 1-2.91-1.56 3.408 3.408 0 0 1-.59-1.94 3.458 3.458 0 0 1 1-2.478 3.56 3.56 0 0 1 4.5-.43 3.509 3.509 0 0 1 1.133 4.556 3.5 3.5 0 0 1-2.403 1.782 3.09 3.09 0 0 1-.73.07Zm0-4.999a1.5 1.5 0 1 0 1.47 1.79 1.49 1.49 0 0 0-.08-.86 1.5 1.5 0 0 0-1.39-.93Z"/>
</svg>
