<svg xmlns="http://www.w3.org/2000/svg" width="24" height="24" fill="none" viewBox="0 0 24 24">
  <path fill="#6C7679" d="M8.902 14.07a1 1 0 10-1.804.86A5.373 5.373 0 009.1 17.17a5.471 5.471 0 005.798 0 5.373 5.373 0 002.003-2.24 1 1 0 10-1.804-.86 3.374 3.374 0 01-1.259 1.404 3.471 3.471 0 01-3.678 0 3.374 3.374 0 01-1.259-1.405zM8 9.5a1.5 1.5 0 103 0 1.5 1.5 0 00-3 0zM13.44 10.56a1.5 1.5 0 112.12-2.12 1.5 1.5 0 01-2.12 2.12z"/>
  <path fill="#6C7679" fill-rule="evenodd" d="M12 2a10 10 0 100 20 10 10 0 000-20zM6.343 6.343a8 8 0 1111.314 11.314A8 8 0 016.343 6.343z" clip-rule="evenodd"/>
</svg>
