<svg xmlns="http://www.w3.org/2000/svg" width="24" height="24" fill="none" viewBox="0 0 24 24">
  <path fill="#6C7679" d="M11.38 2.017c2.15-.132 4.475.522 6.073 1.334a1 1 0 11-.906 1.783c-1.353-.688-3.323-1.227-5.043-1.12-.852.052-1.585.258-2.151.626-.548.356-.992.894-1.24 1.727-.134.456-.15.94-.045 1.406.1.438.302.844.589 1.182A16.53 16.53 0 0012.052 11H21a1 1 0 110 2H3a1 1 0 110-2h5.054c-.24-.171-.475-.348-.707-.53a.995.995 0 01-.124-.117 4.764 4.764 0 01-1.106-2.14A4.803 4.803 0 016.196 5.8v-.002c.38-1.28 1.113-2.216 2.068-2.836.936-.607 2.032-.878 3.117-.945zM16.618 14.073a1 1 0 011.335.467 4.898 4.898 0 01-1.468 6.04 8.14 8.14 0 01-8.642.348l-1.26-.72a1 1 0 11.993-1.736l1.26.72a6.142 6.142 0 006.495-.247 2.898 2.898 0 00.82-3.537 1 1 0 01.467-1.335z"/>
</svg>
