<svg xmlns="http://www.w3.org/2000/svg" width="24" height="24" fill="none" viewBox="0 0 24 24">
  <path fill="#6C7679" fill-rule="evenodd" d="M18.21 2a1 1 0 100 2H19a1 1 0 01.995 1.1l-.78 7.8a1 1 0 101.99.2l.78-7.8A2.999 2.999 0 0019 2h-.79zM2.533 4.855a1 1 0 00-.822 1.152l2.586 15.459a1 1 0 001.152.821l11.892-1.99a1 1 0 00.822-1.15l-2.586-15.46a1 1 0 00-1.151-.821L2.533 4.856zM6.105 20.15L3.849 6.663l9.92-1.66 2.256 13.487-9.92 1.66zm5.954-10.385a1 1 0 10-.33-1.972l-4.864.814a1 1 0 00.33 1.972l4.864-.814zm-.643 2.764a1 1 0 01-.822 1.15l-2.482.414a1 1 0 11-.329-1.972l2.482-.414a1 1 0 011.151.822z" clip-rule="evenodd"/>
</svg>
