<svg xmlns="http://www.w3.org/2000/svg" width="24" height="24" fill="none" viewBox="0 0 24 24">
  <path fill="#6C7679" fill-rule="evenodd" d="M8.828 2.001a7 7 0 016.61 4.252 5 5 0 015.893 7.246 1 1 0 01-1.733-.998 3 3 0 00-4.217-4.025 1 1 0 01-1.513-.615 5 5 0 10-8.595 4.472 1 1 0 11-1.49 1.334A7 7 0 018.828 2zM11 15.414V21a1 1 0 102 0v-5.586l1.293 1.293a1 1 0 001.414-1.414l-3-3a.995.995 0 00-.704-.293H12h-.003a.996.996 0 00-.697.286l-.008.008-2.999 2.999a1 1 0 101.414 1.414L11 15.414z" clip-rule="evenodd"/>
</svg>
