<svg xmlns="http://www.w3.org/2000/svg" width="24" height="24" fill="none" viewBox="0 0 24 24">
  <path fill="#6C7679" fill-rule="evenodd" d="M5.818 3.318a4.5 4.5 0 116.364 6.364 4.5 4.5 0 01-6.364-6.364zM9 4a2.5 2.5 0 100 5 2.5 2.5 0 000-5zM17.469 9.78a1 1 0 011.414 0l2.824 2.823a1 1 0 010 1.414l-7.238 7.24a1 1 0 01-.57.284l-3.275.45a1 1 0 01-1.127-1.127l.45-3.274a1 1 0 01.284-.571l7.238-7.238zm.707 2.122l-6.293 6.293-.225 1.635 1.635-.225 6.293-6.295-1.41-1.408z" clip-rule="evenodd"/>
  <path fill="#6C7679" d="M11.214 12.357A7 7 0 002 19v2a1 1 0 001 1h3a1 1 0 000-2H4v-1a5 5 0 016.582-4.745 1 1 0 10.632-1.898z"/>
</svg>
