<svg xmlns="http://www.w3.org/2000/svg" width="24" height="24" fill="none" viewBox="0 0 24 24">
  <path fill="#6C7679" fill-rule="evenodd" d="M9 2a4.5 4.5 0 100 9 4.5 4.5 0 000-9zM7.232 4.732a2.5 2.5 0 113.536 3.536 2.5 2.5 0 01-3.536-3.536z" clip-rule="evenodd"/>
  <path fill="#6C7679" d="M9 12a7 7 0 00-7 7v2a1 1 0 102 0v-2a5 5 0 1110 0v2a1 1 0 102 0v-2a7 7 0 00-7-7zM16.405 3.141a1 1 0 011.406-.156 4.503 4.503 0 01-.579 7.423 1 1 0 11-.992-1.736 2.5 2.5 0 00.321-4.125 1 1 0 01-.156-1.406zM18.603 12.996a1 1 0 10-1.03 1.715A5 5 0 0120 19v2a1 1 0 002 0v-2a7 7 0 00-3.397-6.004z"/>
</svg>
