<svg xmlns="http://www.w3.org/2000/svg" width="24" height="24" fill="none" viewBox="0 0 24 24">
  <path fill="#6C7679" fill-rule="evenodd" d="M10.47 6.304a4 4 0 113.06 7.391 4 4 0 01-3.06-7.39zM12 8a2 2 0 100 4.001A2 2 0 0012 8z" clip-rule="evenodd"/>
  <path fill="#6C7679" fill-rule="evenodd" d="M12 2a10 10 0 100 20 10 10 0 000-20zM6.343 6.343a8 8 0 1111.108 11.512 6.985 6.985 0 00-2.07-1.911A6.567 6.567 0 0012 15a6.567 6.567 0 00-3.382.944 6.987 6.987 0 00-2.07 1.911 8 8 0 01-.206-11.512zm1.828 12.681a8 8 0 007.658 0 4.988 4.988 0 00-1.476-1.365A4.566 4.566 0 0012 17c-.82 0-1.63.225-2.353.659a4.988 4.988 0 00-1.476 1.365z" clip-rule="evenodd"/>
</svg>
