<svg xmlns="http://www.w3.org/2000/svg" width="24" height="24" fill="none" viewBox="0 0 24 24">
  <path fill="#6C7679" d="M18.53 22a3.461 3.461 0 01-1.53-.38L8.74 17H5.57A3.561 3.561 0 013 15.91a3.71 3.71 0 01-1-2.58v-2.66a3.71 3.71 0 011-2.58A3.56 3.56 0 015.57 7h3.17l8.2-4.6a3.33 3.33 0 011.75-.4 3.41 3.41 0 011.68.54c.505.323.918.77 1.2 1.3.283.53.43 1.12.43 1.72v12.87a3.72 3.72 0 01-.43 1.73 3.49 3.49 0 01-1.2 1.3 3.34 3.34 0 01-1.68.54h-.16zM10 15.42l7.92 4.44c.21.106.445.154.68.14a1.44 1.44 0 00.69-.22 1.59 1.59 0 00.71-1.34V5.56a1.688 1.688 0 00-.19-.77 1.59 1.59 0 00-.52-.57 1.44 1.44 0 00-.7-.22 1.33 1.33 0 00-.7.16L10 8.59v6.83zM5.57 9a1.52 1.52 0 00-1.1.48A1.71 1.71 0 004 10.67v2.66c-.003.443.165.87.47 1.19a1.52 1.52 0 001.1.48H8V9H5.57z"/>
</svg>
