<svg xmlns="http://www.w3.org/2000/svg" width="24" height="24" fill="none" viewBox="0 0 24 24">
  <path fill="#6C7679" fill-rule="evenodd" d="M16.522 13.663c-.243-.114-1.38-.683-1.592-.764-.229-.065-.374-.114-.536.13-.147.229-.602.748-.732.894-.147.162-.276.178-.504.065-.244-.114-.99-.358-1.885-1.154a6.886 6.886 0 01-1.3-1.593c-.13-.243-.017-.357.097-.487a3 3 0 00.357-.407.41.41 0 00.082-.097c.065-.097.097-.178.146-.276a.399.399 0 00-.015-.407c-.051-.114-.52-1.268-.716-1.723-.195-.471-.39-.39-.52-.39-.146 0-.293-.016-.455-.016a.8.8 0 00-.618.293c-.228.228-.829.78-.829 1.934.002.265.046.528.13.78.228.829.748 1.495.83 1.609.113.162 1.608 2.568 3.98 3.494 2.389.926 2.389.618 2.813.584.423-.033 1.381-.552 1.576-1.105.195-.536.195-1.007.13-1.105-.048-.081-.21-.145-.439-.26z" clip-rule="evenodd"/>
  <path fill="#6C7679" fill-rule="evenodd" d="M7.35 4.289A9.006 9.006 0 0112 2.995a9.01 9.01 0 018.852 7.38 9.008 9.008 0 01-13.236 9.498l-3.302 1.115a1 1 0 01-1.25-1.316l1.208-3.044A9.007 9.007 0 017.35 4.288zm4.65.706a7.006 7.006 0 00-5.784 10.962 1 1 0 01.104.933l-.6 1.512 1.69-.57a1 1 0 01.853.1A7.008 7.008 0 1012 4.996z" clip-rule="evenodd"/>
</svg>
